<?xml version="1.0" encoding="utf-8"?>
<!-- Generator: Adobe Illustrator 23.0.1, SVG Export Plug-In . SVG Version: 6.00 Build 0)  -->
<svg version="1.1" id="Layer_1" xmlns="http://www.w3.org/2000/svg" xmlns:xlink="http://www.w3.org/1999/xlink" x="0px" y="0px"
	 viewBox="0 0 152 254.7" style="enable-background:new 0 0 152 254.7;" xml:space="preserve">
<style type="text/css">
	.st0{fill-rule:evenodd;clip-rule:evenodd;fill:#AFC3F0;}
	.st1{fill-rule:evenodd;clip-rule:evenodd;fill:#9FB6ED;}
	.st2{fill-rule:evenodd;clip-rule:evenodd;fill:#B1C7FA;}
	.st3{fill-rule:evenodd;clip-rule:evenodd;fill:#8AA3DE;}
	.st4{fill-rule:evenodd;clip-rule:evenodd;fill:#D1DFFF;}
	.st5{fill-rule:evenodd;clip-rule:evenodd;fill:#BDD1FF;}
	.st6{fill-rule:evenodd;clip-rule:evenodd;fill:#7592D6;}
	.st7{fill-rule:evenodd;clip-rule:evenodd;fill:#DEDEDE;}
	.st8{fill-rule:evenodd;clip-rule:evenodd;fill:#111121;}
	.st9{fill-rule:evenodd;clip-rule:evenodd;fill:#425959;}
	.st10{fill-rule:evenodd;clip-rule:evenodd;fill:#090912;}
	.st11{fill-rule:evenodd;clip-rule:evenodd;fill:#1B1B2E;}
	.st12{fill-rule:evenodd;clip-rule:evenodd;fill:#FFFFFF;}
	.st13{fill-rule:evenodd;clip-rule:evenodd;fill:#D6D6D6;}
	.st14{fill-rule:evenodd;clip-rule:evenodd;fill:#404040;}
</style>
<path class="st0" d="M57.5,99.9c7,0.6,20.1,1.6,28.4,1.8c8.2,0.3,11.6-0.3,13.7-0.6c2.1-0.3,3-0.5,5,3.4c2,4,5.1,12.1,9.1,19.8
	c4,7.8,8.9,15.2,10.8,20.6c1.9,5.4,0.7,8.8-1.4,12.7c-2.1,3.9-5.1,8.2-10.6,10.4c-5.5,2.2-13.4,2.4-21.9,1.8
	c-8.5-0.6-17.5-2-25.7-3.4c-8.1-1.4-15.3-2.8-20.1-3.9c-4.8-1.1-7.1-2-9.3-4.7c-2.2-2.7-4.3-7.1-4.2-12.8c0.1-5.8,2.3-12.8,5-19.1
	c2.7-6.3,5.9-11.7,8-16c2.1-4.4,3.2-7.7,4.2-9.3C49.6,99.2,50.5,99.3,57.5,99.9z"/>
<path class="st1" d="M36.7,171.2c-0.8-2.7-1.8-6.9,10.7-9c12.4-2,38.3-1.9,52.6-1.3c14.4,0.6,17.3,1.7,18.8,3.7
	c1.5,2,1.7,4.9-0.1,8.4c-1.7,3.5-5.4,7.7-11.4,10.4c-6,2.6-14.3,3.6-26.2,3.4c-11.8-0.2-27.2-1.5-34.9-3.5c-7.7-2-7.8-4.7-8.1-6.5
	C38,174.9,37.5,173.8,36.7,171.2z"/>
<path class="st2" d="M85.9,175.4c5.4-2.4,13.1-6.6,18.9-8.6c5.8-2,9.5-1.8,12.5-0.8c3,1,5.3,2.6,7.2,4.9c2,2.2,3.6,5.1,4,10.3
	c0.4,5.2-0.4,12.7-2.8,20.5c-2.3,7.8-6.2,15.9-8.2,20.8c-2,5-2.2,6.8-2.2,9.8c0,3,0.2,7,0,10.9c-0.2,3.8-0.8,7.4-2,9.4
	c-1.3,2-3.2,2.3-5.8,2.3c-2.7,0-6.1-0.3-9.1-1.5c-3-1.2-5.6-3.2-6.6-9.7c-1-6.6-0.5-17.8-0.2-25.6c0.4-7.9,0.6-12.5,0.1-14.7
	c-0.5-2.3-1.9-2.3-4.5-1.8c-2.7,0.5-6.7,1.4-11,1.5c-4.4,0.1-9.1-0.7-12.4-1.4c-3.2-0.8-5-1.5-5.9-0.4c-0.9,1.1-1,4-1.1,10.6
	c-0.1,6.6-0.2,16.8-0.8,23.4c-0.6,6.5-1.8,9.4-3.9,11.8c-2.1,2.4-5.2,4.4-8.5,5.4c-3.3,1-6.9,0.9-9.1-0.1c-2.2-1-2.9-2.9-3-6.4
	c-0.1-3.5,0.5-8.5,1.2-12.1c0.7-3.6,1.5-5.9,1.6-7.8c0-1.9-0.7-3.4-3.6-9.3c-2.9-5.9-7.9-16.2-10.3-23.7c-2.4-7.4-2.1-11.9-0.9-15.9
	c1.3-4,3.5-7.5,7.7-10.1c4.2-2.6,10.2-4.2,15.3-4.2c5.1,0,9.2,1.8,13.2,4.5c4.1,2.7,8.2,6.3,11.3,8.4c3.1,2.1,5.3,2.8,7.9,2.9
	C77.5,178.3,80.5,177.8,85.9,175.4z"/>
<path class="st3" d="M56.9,205.1c-1-4.5-2.5-12.4-2.8-16.2c-0.4-3.8,0.4-3.3,1.5-1.9c1.1,1.4,2.5,3.7,3.8,6c1.3,2.2,2.6,4.4,3.5,5.8
	c0.9,1.4,1.5,2,3.5,2.5c1.9,0.5,5.1,0.9,7.9,1c2.8,0.1,5.1-0.1,6.8-0.5c1.7-0.5,2.8-1.2,4.4-4.1c1.6-2.8,3.7-7.8,5.2-10
	c1.4-2.2,2.2-1.8,2.4-0.8c0.3,1,0,2.5-0.3,7c-0.2,3-0.4,7.2-0.8,11.1c0-0.9-0.1-1.5-0.3-2.1c-0.5-2.3-1.9-2.3-4.5-1.8
	c-2.7,0.5-6.7,1.4-11,1.5c-4.4,0.1-9.1-0.7-12.4-1.4c-3.2-0.8-5-1.5-5.9-0.4C57.3,201.5,57,202.8,56.9,205.1z"/>
<path class="st4" d="M34.3,236.4c1.2-0.9,3.3-1.8,5.6-2.2c2.3-0.3,4.8-0.1,6.5,0.4c1.7,0.5,2.7,1.3,3.3,2.1c0.6,0.8,0.8,1.6,0.5,2.1
	c-0.3,0.5-1.2,0.6-3.2,0.6c-1.9-0.1-4.9-0.3-7-0.4c-2.1-0.1-3.2,0-4.3,0.1c-1.1,0-2.1,0-2.5-0.4C32.8,238.2,33.1,237.3,34.3,236.4z"
	/>
<path class="st4" d="M112.6,239.4c-1.2-0.9-3.3-1.8-5.6-2.2c-2.3-0.3-4.8-0.1-6.5,0.4c-1.7,0.5-2.7,1.3-3.3,2.1
	c-0.6,0.8-0.8,1.6-0.5,2.1c0.3,0.5,1.2,0.6,3.2,0.6c1.9-0.1,4.9-0.3,7-0.4c2.1-0.1,3.2,0,4.3,0.1s2.1,0,2.5-0.4
	C114.1,241.2,113.8,240.3,112.6,239.4z"/>
<g>
	<path class="st5" d="M46.1,99.3c-2.9,0.5-7.5,1.7-12.7,5.3c-5.2,3.5-11,9.4-14.3,19.5c-3.2,10.1-3.8,24.5-3.2,33.1
		c0.6,8.5,2.5,11.2,4.7,13c2.3,1.8,5,2.6,10.9,0.8c5.8-1.8,14.8-6.2,21.6-10.9c6.9-4.7,11.7-9.7,13.8-14.4c2.1-4.7,1.5-9.1,0.7-11.7
		c-0.9-2.6-2-3.5-3.7-3.9c-1.7-0.4-3.8-0.4-6.3,0.3c-2.5,0.7-5.3,2-8.9,3.9c-3.5,1.9-7.8,4.4-9.5,5.3c-1.7,0.9-1,0.3,1.2-1.6
		c2.2-1.8,5.8-4.8,8.4-8.1c2.5-3.3,4-7,4.8-11.8c0.8-4.8,0.9-10.6,0.4-13.9c-0.5-3.3-1.5-4-2.6-4.5C50.2,99,49,98.8,46.1,99.3z"/>
	<path class="st5" d="M50.2,155.8c1.8-1,6-4.6,8.8-7.9c2.8-3.2,4.1-6,4.5-8.3c0.4-2.3-0.3-4.1-1.7-5c-1.4-0.9-3.6-0.7-5-0.4
		c-1.3,0.3-1.8,0.8-1.9,1.8c-0.1,1,0.3,2.4,0.7,3.5c0.4,1.1,0.9,1.9,1.1,2.7c0.2,0.8,0.2,1.7-1,3.6c-1.2,1.9-3.6,4.9-5.2,7.1
		C49,155.3,48.4,156.9,50.2,155.8z"/>
</g>
<g>
	<path class="st5" d="M106.2,100.8c2.9,0.5,7.5,1.7,12.7,5.3c5.2,3.5,11,9.4,14.3,19.5c3.2,10.1,3.8,24.5,3.2,33.1
		c-0.6,8.5-2.5,11.2-4.7,13c-2.3,1.8-5,2.6-10.9,0.8c-5.8-1.8-14.8-6.2-21.6-10.9c-6.9-4.7-11.7-9.7-13.8-14.4
		c-2.1-4.7-1.5-9.1-0.7-11.7c0.9-2.6,2-3.5,3.7-3.9s3.8-0.4,6.3,0.3c2.5,0.7,5.3,2,8.9,3.9c3.5,1.9,7.8,4.4,9.5,5.3
		c1.7,0.9,1,0.3-1.2-1.6c-2.2-1.8-5.8-4.8-8.4-8.1c-2.5-3.3-4-7-4.8-11.8c-0.8-4.8-0.9-10.6-0.4-13.9c0.5-3.3,1.5-4,2.6-4.5
		C102,100.5,103.2,100.3,106.2,100.8z"/>
	<path class="st5" d="M99.4,157.1c-1.8-1-6-4.6-8.8-7.9c-2.8-3.2-4.1-6-4.5-8.3c-0.4-2.3,0.3-4.1,1.7-5c1.4-0.9,3.6-0.7,5-0.4
		c1.3,0.3,1.8,0.8,1.9,1.8c0.1,1-0.3,2.4-0.7,3.5c-0.4,1.1-0.9,1.9-1.1,2.7c-0.2,0.8-0.2,1.7,1,3.6c1.2,1.9,3.6,4.9,5.2,7.1
		C100.6,156.5,101.2,158.1,99.4,157.1z"/>
</g>
<path class="st6" d="M37.6,101.3c8,4,19.1,5.1,34,5.2c17.5,0.1,29.8-1.3,38-7.1l-72-0.5L37.6,101.3z"/>
<path class="st1" d="M76.6,0c-28.5-0.2-51.8,16.9-52,51.3c-0.3,44.5,13.1,51.8,51.3,52c38.2,0.2,51.7-6.8,52-51.3
	C128.2,17.5,105.1,0.2,76.6,0z"/>
<path class="st3" d="M33.8,55C34,20.6,57.2,3.5,85.8,3.7c6.1,0,12,0.9,17.4,2.5C95.5,2.1,86.4,0.1,76.6,0
	c-28.5-0.2-51.8,16.9-52,51.3c-0.2,32,6.6,44.7,24.6,49.4C38,94.1,33.6,80.8,33.8,55z"/>
<path class="st7" d="M76.5,14.9C49.2,14.7,26.9,30.2,26.8,55C26.6,83.7,32.7,95.5,76,95.7c43.3,0.3,49.5-11.4,49.7-40.1
	C125.9,30.8,103.8,15,76.5,14.9z"/>
<path class="st8" d="M76.5,15.9C49.9,15.7,28.2,30.8,28.1,55C27.9,82.9,33.8,94.4,76,94.7c42.2,0.3,48.3-11.1,48.4-39.1
	C124.6,31.4,103.1,16.1,76.5,15.9z"/>
<path class="st9" d="M28.1,55C28.1,55,28.1,55,28.1,55C28.1,55,28.1,55,28.1,55L28.1,55z M28.1,54.9C28.1,54.9,28.1,54.9,28.1,54.9
	C28.1,54.9,28.1,54.9,28.1,54.9L28.1,54.9z M28.1,54.9C28.1,54.9,28.1,54.9,28.1,54.9C28.1,54.9,28.1,54.9,28.1,54.9L28.1,54.9z
	 M28.1,54.8C28.1,54.8,28.1,54.8,28.1,54.8C28.1,54.8,28.1,54.8,28.1,54.8L28.1,54.8z M28.1,54.8C28.1,54.8,28.1,54.8,28.1,54.8
	C28.1,54.8,28.1,54.8,28.1,54.8L28.1,54.8z M28.1,54.7C28.1,54.7,28.1,54.7,28.1,54.7C28.1,54.7,28.1,54.7,28.1,54.7L28.1,54.7z
	 M28.1,54.7C28.1,54.7,28.1,54.7,28.1,54.7C28.1,54.7,28.1,54.7,28.1,54.7L28.1,54.7z M28.1,54.6C28.1,54.6,28.1,54.6,28.1,54.6
	C28.1,54.6,28.1,54.6,28.1,54.6L28.1,54.6z M28.1,54.6C28.1,54.6,28.1,54.6,28.1,54.6C28.1,54.6,28.1,54.6,28.1,54.6L28.1,54.6z
	 M28.1,54.5C28.1,54.5,28.1,54.5,28.1,54.5C28.1,54.5,28.1,54.5,28.1,54.5z"/>
<path class="st10" d="M106,91.4c-7.1,2.4-16.7,3.4-30,3.3l0,0c-29.5-0.2-41.3-5.9-45.6-18.8C28.5,70.3,28,63.4,28.1,55l0,0
	c0,0,0,0,0,0c0,0,0,0,0,0c0,0,0,0,0,0c0,0,0,0,0,0c0,0,0,0,0,0c0,0,0,0,0,0c0,0,0,0,0,0c0,0,0,0,0,0c0,0,0,0,0,0c0,0,0,0,0,0
	c0,0,0,0,0,0c0,0,0,0,0,0c0,0,0,0,0,0c0,0,0,0,0,0c0,0,0,0,0,0c0,0,0,0,0,0c0,0,0,0,0,0c0,0,0-0.1,0-0.1c0,0,0,0,0,0
	c0.3-13,6.8-23.3,17-30c-3.5,4.9-5.8,10.8-6.5,17.6c-2.7,27.8,2.1,39.8,44.2,43.9c15.2,1.5,25.8,1,33.3-1.5c0.7-0.2,1.4-0.5,2-0.7
	C115.2,87,111.4,89.6,106,91.4z"/>
<path class="st11" d="M114.6,48.2c-2.9,1-5.3-5-11-8.6c-3.7-2.3-12.8-4.8-11.3-9.3c0.3-0.8,0.9-1.3,1.7-1.6c3.6-1.2,11.7,2,16.2,6.1
	c5.5,5,8.1,10.3,5.5,12.7C115.3,47.8,114.9,48,114.6,48.2z"/>
<g>
	<path class="st12" d="M62.9,115.6h25.5c1.6,0,2.8,1.3,2.8,2.8v44.8c0,1.6-1.3,2.8-2.8,2.8H62.9c-1.6,0-2.8-1.3-2.8-2.8v-44.8
		C60,116.8,61.3,115.6,62.9,115.6z"/>
	<path class="st13" d="M75.7,127.4c2.1,0,3.9-1.7,3.9-3.9s-1.7-3.9-3.9-3.9s-3.9,1.7-3.9,3.9S73.6,127.4,75.7,127.4z"/>
	<circle class="st14" cx="75.7" cy="123.6" r="0.8"/>
</g>
<path class="st5" d="M42.8,166.1c3.6-1.8,7.2-4,10.4-6.2c6.9-4.7,11.7-9.7,13.8-14.4c2.1-4.7,1.5-9.1,0.7-11.7
	c-0.9-2.6-2-3.5-3.7-3.9c-1.7-0.4-3.8-0.4-6.3,0.3c-2.5,0.7-5.3,2-8.9,3.9c-3.1,1.7-6.7,3.8-8.7,4.9c-6.5,5.8-11.5,10.7-12.3,15.1
	c-0.8,4.6,2.8,8.7,6.3,10.5c3.4,1.8,6.6,1.4,8.4,1.5C42.6,166.1,42.7,166.1,42.8,166.1z"/>
<path class="st4" d="M50.2,155.8c1.8-1,6-4.6,8.8-7.9c2.8-3.2,4.1-6,4.5-8.3c0.4-2.3-0.3-4.1-1.7-5c-1.4-0.9-3.6-0.7-5-0.4
	c-1.3,0.3-1.8,0.8-1.9,1.8c-0.1,1,0.3,2.4,0.7,3.5c0.4,1.1,0.9,1.9,1.1,2.7c0.2,0.8,0.2,1.7-1,3.6c-1.2,1.9-3.6,4.9-5.2,7.1
	C49,155.3,48.4,156.9,50.2,155.8z"/>
<path class="st5" d="M106.5,166.1c-2.6-1.4-5.2-3-7.5-4.6c-6.9-4.7-11.7-9.7-13.8-14.4c-2.1-4.7-1.5-9.1-0.7-11.7
	c0.9-2.6,2-3.5,3.7-3.9s3.8-0.4,6.3,0.3c2.5,0.7,5.3,2,8.9,3.9c3.5,1.9,7.8,4.4,9.5,5.3c0.1,0.1,0.2,0.1,0.3,0.2
	c2.4,1.9,4.1,3.3,5.3,5.3c1.5,2.4,2.3,5.5,2.2,8.6c-0.1,3.1-1.1,6-2.9,7.7c-1.8,1.7-4.4,2.2-6.7,2.7
	C109.5,165.7,107.8,166,106.5,166.1z"/>
<path class="st4" d="M99.4,157.1c-1.8-1-6-4.6-8.8-7.9c-2.8-3.2-4.1-6-4.5-8.3c-0.4-2.3,0.3-4.1,1.7-5c1.4-0.9,3.6-0.7,5-0.4
	c1.3,0.3,1.8,0.8,1.9,1.8c0.1,1-0.3,2.4-0.7,3.5c-0.4,1.1-0.9,1.9-1.1,2.7c-0.2,0.8-0.2,1.7,1,3.6c1.2,1.9,3.6,4.9,5.2,7.1
	C100.6,156.5,101.2,158.1,99.4,157.1z"/>
</svg>
