<?xml version="1.0" encoding="utf-8"?>
<!-- Generator: Adobe Illustrator 23.0.1, SVG Export Plug-In . SVG Version: 6.00 Build 0)  -->
<svg version="1.1" id="Warstwa_1" xmlns="http://www.w3.org/2000/svg" xmlns:xlink="http://www.w3.org/1999/xlink" x="0px" y="0px"
	 viewBox="0 0 620 406.3" style="enable-background:new 0 0 620 406.3;" xml:space="preserve">
<style type="text/css">
	.st0{fill-rule:evenodd;clip-rule:evenodd;fill:#101033;}
</style>
<path class="st0" d="M172.9,91.5c-26.3,18-77.7,38-94,51.7c-16.3,13.7,2.3,21,21,27.3c18.7,6.3,37.3,11.7,34.7,19.7
	c-2.7,8-26.7,18.7-51.7,29.3c-25,10.7-51,21.3-66.3,34.7c-15.3,13.3-20,29.3-14,44c6,14.7,22.7,28,45.8,40.6
	c23.1,12.6,52.6,24.5,81.9,35.6c29.3,11.1,58.5,21.3,107.8,26.8c49.3,5.5,118.6,6.4,176.6,3.3c58-3.1,104.6-10,129.9-28.9
	c25.3-18.8,29.3-49.5,22.3-71.8c-7-22.3-25-36.3-37.3-49.3c-12.3-13-19-25-2.3-40c16.7-15,56.7-33,77-49.3c20.3-16.3,21-31,2.3-45.3
	c-18.7-14.3-56.7-28.3-93.3-36.7s-72-11-89-17.3c-17-6.3-15.7-16.3-12.3-26c3.3-9.7,8.7-19-11.5-26.7C380.2,5.5,334.5-0.6,297.8,0.1
	c-36.7,0.7-64.3,8.1-78.8,16.1c-14.5,8-15.8,16.7-17.1,29C200.5,57.5,199.2,73.5,172.9,91.5z"/>
</svg>
