<?xml version="1.0" encoding="utf-8"?>
<!-- Generator: Adobe Illustrator 23.0.1, SVG Export Plug-In . SVG Version: 6.00 Build 0)  -->
<svg version="1.1" id="Warstwa_1" xmlns="http://www.w3.org/2000/svg" xmlns:xlink="http://www.w3.org/1999/xlink" x="0px" y="0px"
	 viewBox="0 0 450 432" style="enable-background:new 0 0 450 432;" xml:space="preserve">
<style type="text/css">
	.st0{fill-rule:evenodd;clip-rule:evenodd;fill:#949494;}
	.st1{fill-rule:evenodd;clip-rule:evenodd;fill:#D9D9D9;}
	.st2{fill-rule:evenodd;clip-rule:evenodd;fill:#FFFFFF;}
	.st3{fill-rule:evenodd;clip-rule:evenodd;fill:#FBFBFB;}
	.st4{fill-rule:evenodd;clip-rule:evenodd;fill:#DBDBDB;}
	.st5{fill-rule:evenodd;clip-rule:evenodd;fill:#7C7C85;}
	.st6{fill-rule:evenodd;clip-rule:evenodd;fill:#A1A1A1;}
	.st7{fill-rule:evenodd;clip-rule:evenodd;fill:#454545;}
	.st8{fill-rule:evenodd;clip-rule:evenodd;fill:#6A6A6A;}
	.st9{fill-rule:evenodd;clip-rule:evenodd;fill:#B3B3B3;}
	.st10{fill-rule:evenodd;clip-rule:evenodd;fill:#ABABAB;}
	.st11{fill-rule:evenodd;clip-rule:evenodd;fill:#737373;}
	.st12{fill-rule:evenodd;clip-rule:evenodd;fill:#CFCFCF;}
</style>
<g>
	<ellipse class="st0" cx="225" cy="216" rx="225" ry="216"/>
	<ellipse class="st1" cx="216.7" cy="235" rx="180.1" ry="178.5"/>
	<ellipse class="st2" cx="211" cy="251.2" rx="149.6" ry="148.3"/>
	<g>
		<path class="st3" d="M140.5,176.2l0.1,0.7c2.7,0.2,4.4-0.8,7.1-1c-0.1,2.3-1.2,5.1,0.7,6.2c0.9-1.3,0.6-2.7,1.2-4.3
			c0.9-2.4,1.2-2.2,0.2-4.7C146.8,172.6,143.9,176.1,140.5,176.2z"/>
		<path class="st3" d="M258.8,181.9c2.6,0.2,3.1-1.7,3.3-1.9c0.8-0.9,2.3-1.2,3.4-2c-0.4-0.4,0.1,0.1-0.4-0.5l-0.7-0.9
			c-1.3,0.1-3.9,2.6-4.7,3.6c0,0.1-0.1,0.2-0.1,0.2L258.8,181.9z"/>
		<path class="st3" d="M76.1,199c-0.5-1.4-1.2-1.5-2.1-2.4c-0.8-0.7-1.5-1.9-2.9-1.8c-0.1,1.1,0.1,1.5,1,2.3c0,0,0.7,0.6,0.8,0.6
			c1.1,0.8,1.8,1.3,3,2.1C76.2,199.5,76.1,199.8,76.1,199z"/>
		<path class="st3" d="M177.6,253.6c1.5,2,1.8,1.6,3.7,0.6l0.1-1.8C179.6,251.9,178.1,251.1,177.6,253.6z"/>
	</g>
	<g>
		<path class="st4" d="M159.8,291.7l0.1,1.7l1.2,0.3c-0.3-0.8-0.2,0.2-0.3-0.8c0-0.1,0-0.2,0-0.3c0-0.1,0-0.2,0-0.3l0.2-0.6
			c1.3,0.7,0.1-0.2,1.1,1c0.5,0.5,0.5,0.6,0.9,1.1c3,0.1,6.1,6,7.2,8.7c1.1,0.4,4.5,3.6,4.9,4.4c-0.7-1.1-1.3-2.3-2.1-3.6
			c-0.8-1.3-1.6-2.4-2.3-3.7c3.5,2.1,6.1,5.8,10,7.3l0.7,0.2l-0.2-0.7l-0.2-0.9l-1.3-1.5c-0.7-0.5-0.4,0-0.9-0.5
			c-0.9-0.9-0.2-0.1-0.7-1.1c-0.3-1,0.2,0-0.6-0.9c-0.4-0.4-0.7-0.6-1-0.8c-0.7-0.6-1.2-1.1-1.9-1.7c-1.9-1.6-10.1-9.7-11.6-10.3
			c-1.3,2.5,0.3,1.6,1.1,3.3c-1.3-0.8-1.8-1.6-3-2.1C160.5,290.7,160.2,290.9,159.8,291.7z"/>
		<path class="st4" d="M251.2,370.6c-0.6,0.3-4.5,3.6-5.3,4.9c-1.6,2.4-4.6,2.6-5.3,5.7c3.6-1.1,3.9-3.7,6.6-4.9
			c1.3-0.6,1.8-0.7,2.9-1.3c0.4-0.8,1.2-1.2,2-2c0.8-0.9,1.4-1.3,2.2-2.1c0.9-0.8,4.1-3.6,4.4-4.2c0.1-1.1-0.1-0.1-1.1-1.2
			c-0.8,2.3-0.1,0.5-1,1.2c0,0-0.1,0.1-0.1,0.1c0,0-0.1,0.1-0.1,0.1l-0.3,0.3c0-0.1-0.1,0.1-0.1,0.2c-0.9-1.2-0.2-0.6-0.8-1.8
			c-1,0.5-1.2,0.9-2.3,1.8c0.4,0.4,1,0.9,1.4,1.2c-1.8-0.3-0.8-0.1-1,0C252.3,369,253.2,369.7,251.2,370.6z"/>
		<path class="st4" d="M139.3,136.4c0.6,2.2-0.1,1-1,2.4c0.6,3.5,0.6,3.2,2.3,5.4c2,2.7,0.6,3.1,0.8,5.1c0.1,0.8,0,0.4,0.2,0.8
			c2.3-0.4,1.5-0.8,1.4-6.3l-0.4-7.3C140.4,136,141.5,135.8,139.3,136.4z"/>
		<path class="st4" d="M56.9,236.5l0,1.3c1.7,1.2,1.1,1,2.2,2.1c0.9,0.9,1.6,1.1,1.8,2.8l-3.7-3.4c-0.1,3.2,0.6,4.8,3.9,5.1
			c0.7-1.5,0.7-0.6,1.3-1.5c0.7-1.1,0.4-1.6-0.1-2.6c-0.6-1-0.4-1.4-1-1.8c-0.9-0.7-0.5-0.3-1.3-0.5c-0.1,0-0.2-0.1-0.3-0.1
			l-0.6-0.2c-0.1-0.1-0.2-0.1-0.3-0.1c0.8-1.8,0.4-0.4,2.2-0.6C59.6,234.4,58.6,236.2,56.9,236.5z"/>
		<path class="st4" d="M140.7,185.9c0.7,3.3-0.2,1.5,1.7,3.4c2.3-0.4,3.3-0.7,4.7-2c0.8-0.8,2.6-3.5-0.2-3.6
			c-0.9,0.1-0.2-0.6-0.6,0.3c0.3,0.3,0.7,0.9,0.6,1.3c-0.4-0.9-1.2-0.8-1.4-0.8l-2.2-0.1l0.8,2.1c-1.6-1.3-0.7,0.1-0.7,0.2
			c-0.2,0.2-0.2,0.4-0.4,0.6c-0.4-1.9-0.2,0-0.4-1.1c-0.5-1.8,0,1.1,0-0.4l0-0.4c0,0,0-0.2,0-0.2c-0.3-1.1-1.5-0.9-1.7-0.9
			L140.7,185.9z"/>
		<path class="st4" d="M160.3,257.2l0,2.6l0.3,1.1l1.7,0c0.7-1.3-0.1-1,1-2.3c0.7-0.8,0.9-0.9,1.7-1.9l1.5-2.1
			c0.6-0.7,1.1-0.9,2-1.6C165.3,250.9,162.3,256.4,160.3,257.2z"/>
		<path class="st4" d="M260.5,170.7c-1,0.9-2.4,3.5-3,4.6l-3.9,7c-0.8,1.7-0.5,1.3,0.4,2.6c0.7-0.8,0.3,0.2,0.4-0.9
			c0.1-1.2-0.8-0.8,0.2-2.1c1.5-1.9,0.5-0.8,1.4-2.5c0.6-1.1,1.2-1.8,1.9-2.8c0.2-0.3,0,0.1,0.4-0.6l0.2-0.4c0.3-0.6-0.7-0.5,1-1.2
			c-0.4,2.6-0.8,1.1-1.4,3.2l1.4-0.2c1.1-0.3,0.9-0.3,1.4-1.9c0.1-0.4,1,0.3,0.1-1.4l1-0.2l0.9-1.9c0.4-1,0.4-1-0.1-1.9
			c-1,0.9-1.8,2.5-2.8,3.4c0.2-1.3,0.9-1.8,1.4-2.6L260.5,170.7z"/>
		<path class="st4" d="M130.9,166.9c0,2.1,0.1,2.9,0.9,4.7c0.5,1.2,1.6,2.8,1.8,3.7l1.2,0.3c-0.4,1.1,0.3,1.9,0.8,2.8l1.6-0.7
			c0.5-0.9-0.5-0.3,1-1c0-0.1-0.1-0.3-0.1-0.2c-0.2,0.8-0.2-0.4-0.2-0.6c-2.7-0.8-3.3-1.7-4.4-4.1c-0.6-1.2-1.1-6-1.1-7.4l-0.9-0.8
			L130.9,166.9z"/>
		<path class="st4" d="M222.1,266.5l-1.8,0.1c1.5,1,0.8,0.3,2,0.7c0.9,0.3,1.1,0.6,1.5,1.5c3.9,3.1,6.2-0.7,4.3-3
			c-0.8-1-2.1-0.6-4.6-0.7C222.3,266.9,224.2,266.2,222.1,266.5z"/>
		<path class="st4" d="M201.4,89.4c-0.7,0.9,0.6,0.3-0.5,0.8c1.1,0.3,0.4,0.1,1.2,1c-3.1-0.4-1.6-0.2-3.8,1.2c0.7,0.2,0.4,0.1,1.2,0
			l0.2,1.5c1.2-0.5,5-5.1,5.7-6.2c0.4-1.5,0.2-0.4-0.3-1.8c-0.4-1.4,0.3-0.5-0.2-1.2l-0.6,0.1C202.7,86,201.2,86.8,201.4,89.4z"/>
		<path class="st4" d="M247.8,363.2c0,0.3-0.1,1-0.1,1.1c-0.2,0.7-0.4,0.1-1.4,1.8c-0.3,0.6-0.5,0.9-0.8,1.4
			c-0.9,1.7-2.1,3.3-2.4,5.3c2.3-0.7,2.8-2.6,3.9-4.6c0.5-1,0.9-1.3,1.6-2.4c0.5-1,1-1.7,1.7-2.5l0-1.8c-1.8,0.3-0.7-0.5-1.3,1.4
			L247.8,363.2z"/>
		<path class="st4" d="M258.1,83.9l1-0.7c1.1-1.2-0.6,0.6,0.3-0.7c1.2-0.1,1.2,0.1,2.2,0.5l-1,1.1c0.1,0.1,0.2,0,0.3,0.2
			c0,0.1,0.2,0.1,0.3,0.1c0.1,0,0.6,0.1,0.7,0.2c1.9,0.3,0.9,0.2,2-0.2c0.4-0.2,1.2,0.1,1.1-1.4c0-0.5,0.1-0.1-0.3-0.6l-1-1l-4-0.7
			c-2,0.1-1.8,1.1-2.1,1.5c-1,1.1-0.3-0.5-1,0.9C257.4,83.9,256.7,83.3,258.1,83.9z"/>
		<path class="st4" d="M139.9,193.4c1.4,1.1,0.9,3.9,1,4.8c0.1,0,0.3,0,0.3,0.1l1-0.3c1.4-0.8,1.5-1.2,1.6-2.9
			c-0.4-0.4,0-0.1-0.6-0.4l-1.1-0.4c0-2.2,0.3-3.7-0.7-5.4C140.1,189.8,140.2,191.8,139.9,193.4z"/>
		<path class="st4" d="M144.6,102.5l-0.9-2.2c-0.4-0.8-0.4-0.5-0.7-0.8c-0.1-0.1-0.3-0.3-0.4-0.3l-0.4-0.3l-1.2,0.2l-1.4,3.1
			c0.8,0.7,0.5,1.2,1.8,2.1c0.6,0.4,0.1,0.3,0.9,0.5C143.5,104.2,143.9,104.1,144.6,102.5z"/>
		<path class="st4" d="M212.6,302.9c0.1,1,0.7-0.4-0.1,1.1c2.5-0.4,1.1,0,1.7,0.8c0.3,0.3,0.4,0.5,0.4,0.4c0-0.1,0.2,0.1,0.3,0.2
			l-0.5,0.3c-1.2,0.9-0.9,1-0.9,1.1c-0.4,0.6-0.9,0.4-1.3,0.7l1.4,0.8c2.5,0.1,2.1,0,3.2-1.3c0.2-2.5-0.2-3.1-1.7-4.4L212.6,302.9z"
			/>
		<path class="st4" d="M126.6,107l-0.1,2.6c0.9,0.7,1.4,0.9,2.1,1.5c1.4-0.4,0.5-0.2,1.3-0.6c0.5-0.2,0.6-0.1,0.7-0.1
			c0.4-1.7-0.1-3.3-0.9-4.2C128.4,106.1,127.8,106.5,126.6,107z"/>
		<path class="st4" d="M50.5,237.9l0.2-1.1c0.9,0.8,0.6,1,2,1.1c1.1-0.1,1.7-0.4,2.6,0.1c1.6,0.9-1.1,1,1.9,1.1
			c-1.2-2.3-3-1.3-3.6-5.1l-0.3,1.1c0,0.1-0.1,0.2-0.2,0.3c0,0.1-0.1,0.2-0.2,0.3c-2.2-0.5-1.2-1.2-3.6-1.1
			C49.2,234.7,48.7,238.9,50.5,237.9z"/>
		<path class="st4" d="M133.7,101c0.7,1.2,0.2,0.5,0.3,1.2c0.8,3,6.5,2.6,2.8-3.2L133.7,101z"/>
		<path class="st4" d="M161.4,152.8c-0.4,0.4,0,0.2-0.9,0.8c-0.1,0.1-0.8,0.4-1,0.5c-1,0.4-0.9,0.3-1.6,0.9c1.2-0.1,2-0.6,3.1-0.8
			c2.3-0.6,2.1,0,3.9-0.2c1.2-1.4,1.6-2.2,0.3-3.7l-1.9-0.1l-0.8,2.5L161.4,152.8z"/>
		<path class="st4" d="M81.4,288.6c0,1.5,0.3,0.3-0.1,1.3c-0.4,0.9-0.4-0.1-0.7,1.5c1.4,0.8,1.9,1,3.4,1c0.4-1.2-0.1-1,0.6-1.9
			l1.4-1.4l-1.6-0.8c-0.1,0-0.9,0.2-1,0.2c-1.2,0.1-0.3,0-0.7-0.1C81.9,288.4,82.6,288,81.4,288.6z"/>
		<path class="st4" d="M317.5,208.1c1.9,0.3,0.8,0.4,1.1-0.7c-2.3-2.5,1.8-6.7-2.6-6.6l0.1,3.6C316.1,206.6,316.2,207.1,317.5,208.1
			z"/>
		<path class="st4" d="M140.3,119c-0.5-0.8-0.4-0.5-0.6-1.5l-1.3,0.1c0.6,1.8,0.1,2,0.5,3.1c0.2,0.5,0.3,0.7,1,0.8
			c1.2,0.2,0.7,0.1,1.1-0.5c0.7,1.6,0.9,1.7,2.4,1.7c-0.4-1.6,0.5-1.6-0.9-2.7c-1.4-1-1.2,0.7-1.1-0.5L140.3,119z"/>
		<path class="st4" d="M99.6,300.3c-0.7,1.6,0.1,2.9,1.2,3.2c1.8,0.5,0.2,0.3,1.2-0.2c0.1,0.4,0.2,0.8,0.3,1.2c0,0.1,0,0.2,0.1,0.3
			l0.9,1c0.5-0.1-0.4-0.4,0.8-0.1l-0.1-1.4c-1.7-0.3-0.8-1.3-1.5-2.9C102.1,300.4,101,299.7,99.6,300.3z"/>
		<path class="st4" d="M267.1,333.9l-2.8,3.1c0-0.1-0.2,0.1-0.2,0.2l0.2,0.3c-0.3,1.7-0.1,0.9-0.2,2c-0.1,1.2,0,1.1-0.7,1.6
			c-0.6-0.7,0.8-1.1,1.7-1.2c1.2-0.6,3.3-4.6,3.4-6.2L267.1,333.9z"/>
		<path class="st4" d="M174.7,227.2c-0.3,1.3-0.6,1.5-0.3,2.6c0.8,1.3,0.8,0.9,2.5,1.2c1.4-2.1,0.7-3.6-1.1-4.4L174.7,227.2z"/>
		<path class="st4" d="M125.7,129.1l-0.5,1.1c0.5,0.7,0.4,1.1,0.8,2c1.9-0.9-1.2,0.2,2.7-2.1l0.8-0.5c-0.1-0.1-0.1-0.3-0.2-0.2
			l-0.8-1.6l-1.4,0.2C126.3,128.2,125.9,128.3,125.7,129.1z"/>
		<path class="st4" d="M44.1,220.6l1.1,0.1c0.4,2.9,1,1.8,2.5,2c-0.1,0.1-0.2,0.1-0.3,0.3l-1,0.8c2.4,0.3,0-0.1,1.1,0.7
			c0.6,0.5-0.4,0.6,1.2,0.3c-0.1-0.3-0.6-1-0.6-1c-0.4-0.8-0.4-0.4-0.4-1.4C47.4,218.9,43,218,44.1,220.6z"/>
		<path class="st4" d="M228.6,44.9c-0.1,2.1,0.3,2.7,2.2,3c-0.4-1.3-0.6-1.8-0.3-3.1c-0.8-1.1-0.1-1.2-0.7-3.2
			C228.8,42.2,228,41.8,228.6,44.9z"/>
		<path class="st4" d="M247.3,369.8c0,1.2-0.5,1.5-0.9,2.8c1.3-0.5,1.5-0.4,2.6-1.3c0.7-0.6,1.3-1.1,2-1.7c-0.1,0-0.1-0.1-0.2-0.1
			c0,0-0.1-0.1-0.2-0.1c0,0-0.1-0.1-0.1-0.2c-1-1-0.3-1.3,0.8-1.6c-2.3-0.2,0.7,0.7-2.5,0.6l0.4,1.9L247.3,369.8z"/>
		<path class="st4" d="M248.1,78.1l-0.7-1.6c-1.1-0.2-1.8-0.3-2.6,0.2c-0.6,0.3-0.5,0.4-0.8,1c0.6,0.8-0.5,0.7,1.7,0.7
			c1.2,0,0.2-0.2,0.7,0.1c0.9,0.5-0.9-0.6,0.4,0.3c0.1,0,0.2,0.3,0.3,0.2c0-0.1,0.2,0.2,0.3,0.2C247.9,77.6,247.5,78.5,248.1,78.1z"
			/>
		<path class="st4" d="M139.2,239.6c-1.4-0.7-2.8-1.5-4.3-1.6l0.1,1.4c0.6,0.2,1.6,0.5,2.1,0.7c1.2,0.5-0.4,0,1,0.6
			c0.9,0.4,0.4,0.2,1.2,0.3L139.2,239.6z"/>
		<path class="st4" d="M240.3,386.9c0.1-0.6,0-0.3,0.3-0.9c0.1-0.1,0.5-0.7,0.5-0.7c0.8-0.9,0.4,0.2,0.6-1.4c-1,0.1-1.8,0.4-2.6,1
			c-1.3,1-1,1.5-1,1.5L240.3,386.9z"/>
		<path class="st4" d="M217.9,351.4c-0.5-1.7-2.8-4.3-4.2-4.5l2.4,3.5C217.4,351.7,215.9,350.9,217.9,351.4z"/>
		<path class="st4" d="M350.7,172.9c1.1-1.3,0.4-1.3,0.7-1.7c-0.1-0.2,0.3-1.3-1.5-0.2l-0.5,0.3c-0.5,0.3-0.5,1.3-0.6,1.8
			L350.7,172.9z"/>
	</g>
	<ellipse class="st5" cx="175" cy="65.5" rx="11.2" ry="11.9"/>
	<path class="st5" d="M210.1,148.3c6.4,0,11.6-5.4,11.6-11.9s-5.2-11.9-11.6-11.9c-6.4,0-11.6,5.4-11.6,11.9
		S203.7,148.3,210.1,148.3z"/>
	<ellipse class="st5" cx="71.1" cy="203.2" rx="19.8" ry="21.5"/>
	<path class="st6" d="M164.5,327.5c6,0,10.9-5.4,10.9-11.9s-4.9-11.9-10.9-11.9c-6,0-10.9,5.4-10.9,11.9S158.4,327.5,164.5,327.5z"
		/>
	<path class="st5" d="M366.5,145.6c6.6,0,11.9-6.3,11.9-14c0-7.7-5.4-14-11.9-14c-6.6,0-11.9,6.3-11.9,14
		C354.6,139.3,360,145.6,366.5,145.6z"/>
	<ellipse class="st5" cx="139.6" cy="56.1" rx="19.8" ry="21.5"/>
	<ellipse class="st6" cx="223.3" cy="51.1" rx="19.8" ry="21.5"/>
	<ellipse class="st5" cx="99.8" cy="292.8" rx="19.8" ry="21.5"/>
	<ellipse class="st5" cx="327.2" cy="84.6" rx="19.8" ry="21.5"/>
	<ellipse class="st5" cx="288.6" cy="44.5" rx="19.8" ry="21.5"/>
	<path class="st5" d="M76.9,152.1c10.9,0,19.8-9.6,19.8-21.5c0-11.8-8.9-21.5-19.8-21.5c-10.9,0-19.8,9.6-19.8,21.5
		C57.1,142.5,66,152.1,76.9,152.1z"/>
	<ellipse class="st5" cx="137.9" cy="233.2" rx="10.9" ry="11.9"/>
	<path class="st5" d="M167.7,188.8c6,0,10.9-5.4,10.9-11.9s-4.9-11.9-10.9-11.9c-6,0-10.9,5.4-10.9,11.9S161.7,188.8,167.7,188.8z"
		/>
	<path class="st5" d="M194.2,238.5c6,0,10.9-5.4,10.9-11.9c0-6.6-4.9-11.9-10.9-11.9s-10.9,5.4-10.9,11.9
		C183.3,233.1,188.2,238.5,194.2,238.5z"/>
	<path class="st5" d="M238.9,173.9c6,0,10.9-5.4,10.9-11.9s-4.9-11.9-10.9-11.9c-6,0-10.9,5.4-10.9,11.9S232.9,173.9,238.9,173.9z"
		/>
	<path class="st5" d="M268.7,117.7c6,0,10.9-5.4,10.9-11.9s-4.9-11.9-10.9-11.9c-6,0-10.9,5.4-10.9,11.9S262.7,117.7,268.7,117.7z"
		/>
	<ellipse class="st6" cx="295.2" cy="155.4" rx="10.9" ry="11.9"/>
	<path class="st5" d="M94.9,162c6,0,10.9-5.4,10.9-11.9c0-6.6-4.9-11.9-10.9-11.9c-6,0-10.9,5.4-10.9,11.9
		C84,156.7,88.9,162,94.9,162z"/>
	<path class="st5" d="M124.7,105.7c6,0,10.9-5.4,10.9-11.9c0-6.6-4.9-11.9-10.9-11.9c-6,0-10.9,5.4-10.9,11.9
		C113.8,100.4,118.7,105.7,124.7,105.7z"/>
	<ellipse class="st5" cx="151.2" cy="143.5" rx="10.9" ry="11.9"/>
	<path class="st5" d="M173.7,108.4c6,0,10.9-5.4,10.9-11.9c0-6.6-4.9-11.9-10.9-11.9c-6,0-10.9,5.4-10.9,11.9
		C162.8,103.1,167.7,108.4,173.7,108.4z"/>
	<path class="st5" d="M203.5,52.1c6,0,10.9-5.4,10.9-11.9s-4.9-11.9-10.9-11.9s-10.9,5.4-10.9,11.9S197.5,52.1,203.5,52.1z"/>
	<ellipse class="st5" cx="230" cy="89.9" rx="10.9" ry="11.9"/>
	<path class="st5" d="M61,259.4c6,0,10.9-5.4,10.9-11.9c0-6.6-4.9-11.9-10.9-11.9c-6,0-10.9,5.4-10.9,11.9
		C50.1,254.1,55,259.4,61,259.4z"/>
	<path class="st6" d="M90.8,203.2c6,0,10.9-5.4,10.9-11.9c0-6.6-4.9-11.9-10.9-11.9c-6,0-10.9,5.4-10.9,11.9
		C79.9,197.8,84.8,203.2,90.8,203.2z"/>
	<path class="st5" d="M117.3,252.8c6,0,10.9-5.4,10.9-11.9c0-6.6-4.9-11.9-10.9-11.9c-6,0-10.9,5.4-10.9,11.9
		C106.4,247.5,111.3,252.8,117.3,252.8z"/>
	<ellipse class="st7" cx="197.5" cy="284.2" rx="10.9" ry="11.9"/>
	<path class="st5" d="M227.3,239.8c6,0,10.9-5.4,10.9-11.9c0-6.6-4.9-11.9-10.9-11.9c-6,0-10.9,5.4-10.9,11.9
		C216.4,234.5,221.3,239.8,227.3,239.8z"/>
	<path class="st6" d="M253.8,289.5c6,0,10.9-5.4,10.9-11.9c0-6.6-4.9-11.9-10.9-11.9c-6,0-10.9,5.4-10.9,11.9
		C242.9,284.1,247.8,289.5,253.8,289.5z"/>
	<path class="st5" d="M304.5,206.4c6,0,10.9-5.4,10.9-11.9c0-6.6-4.9-11.9-10.9-11.9c-6,0-10.9,5.4-10.9,11.9
		C293.6,201.1,298.5,206.4,304.5,206.4z"/>
	<path class="st5" d="M334.3,150.2c6,0,10.9-5.4,10.9-11.9s-4.9-11.9-10.9-11.9c-6,0-10.9,5.4-10.9,11.9S328.3,150.2,334.3,150.2z"
		/>
	<path class="st7" d="M360.8,199.8c6,0,10.9-5.4,10.9-11.9c0-6.6-4.9-11.9-10.9-11.9c-6,0-10.9,5.4-10.9,11.9
		C349.9,194.5,354.8,199.8,360.8,199.8z"/>
	<path class="st5" d="M93.2,99.4c6,0,10.9-5.4,10.9-11.9s-4.9-11.9-10.9-11.9c-6,0-10.9,5.4-10.9,11.9S87.2,99.4,93.2,99.4z"/>
	<ellipse class="st5" cx="51.9" cy="157" rx="10.9" ry="11.9"/>
	<path class="st5" d="M138.2,127.3c6,0,10.9-5.4,10.9-11.9c0-6.6-4.9-11.9-10.9-11.9s-10.9,5.4-10.9,11.9
		C127.3,121.9,132.2,127.3,138.2,127.3z"/>
	<path class="st5" d="M407.8,155.7c6,0,10.9-5.4,10.9-11.9c0-6.6-4.9-11.9-10.9-11.9c-6,0-10.9,5.4-10.9,11.9
		C396.9,150.4,401.8,155.7,407.8,155.7z"/>
	<path class="st5" d="M124.7,187.2c6,0,10.9-5.4,10.9-11.9c0-6.6-4.9-11.9-10.9-11.9c-6,0-10.9,5.4-10.9,11.9
		C113.8,181.8,118.7,187.2,124.7,187.2z"/>
	<path class="st5" d="M192.1,368.1c3,0,5.5-2.7,5.5-6c0-3.3-2.4-6-5.5-6c-3,0-5.5,2.7-5.5,6C186.6,365.4,189.1,368.1,192.1,368.1z"
		/>
	<path class="st5" d="M200.8,187.2c3,0,5.5-2.7,5.5-6s-2.4-6-5.5-6s-5.5,2.7-5.5,6S197.8,187.2,200.8,187.2z"/>
	<path class="st5" d="M248.8,34.9c3,0,5.5-2.7,5.5-6c0-3.3-2.4-6-5.5-6c-3,0-5.5,2.7-5.5,6C243.4,32.2,245.8,34.9,248.8,34.9z"/>
	<path class="st5" d="M320,253.4c3,0,5.5-2.7,5.5-6s-2.4-6-5.5-6c-3,0-5.5,2.7-5.5,6S317,253.4,320,253.4z"/>
	<path class="st5" d="M268.7,332.9c3,0,5.5-2.7,5.5-6c0-3.3-2.4-6-5.5-6s-5.5,2.7-5.5,6C263.3,330.2,265.7,332.9,268.7,332.9z"/>
	<path class="st5" d="M262.1,193.8c3,0,5.5-2.7,5.5-6s-2.4-6-5.5-6s-5.5,2.7-5.5,6S259.1,193.8,262.1,193.8z"/>
	<path class="st5" d="M56.2,201c3,0,5.5-2.7,5.5-6c0-3.3-2.4-6-5.5-6s-5.5,2.7-5.5,6C50.7,198.3,53.2,201,56.2,201z"/>
	<path class="st5" d="M383.4,100.1c3,0,5.5-2.7,5.5-6s-2.4-6-5.5-6s-5.5,2.7-5.5,6S380.4,100.1,383.4,100.1z"/>
	<path class="st5" d="M396.6,226.3c3,0,5.5-2.7,5.5-6c0-3.3-2.4-6-5.5-6c-3,0-5.5,2.7-5.5,6C391.2,223.6,393.6,226.3,396.6,226.3z"
		/>
	
		<ellipse transform="matrix(0.5383 -0.8427 0.8427 0.5383 -62.4217 101.6874)" class="st8" cx="61.6" cy="107.8" rx="63.5" ry="32.8"/>
	<path class="st7" d="M36.6,142c10.6,7.9,30.7-2.8,44.9-24.1C95.6,96.6,98.5,73,87.9,65c-10.6-7.9-30.7,2.8-44.9,24.1
		C28.9,110.4,26,134.1,36.6,142z"/>
	<path class="st0" d="M39.8,151c3.2-0.4,9.3-0.1,17.1-3.6c7.8-3.5,17.2-10.9,23.5-18.9c6.3-8,9.6-16.5,10.9-19c1.4-2.5,0.8,1-2,7.1
		c-2.9,6.1-8.1,14.9-14.3,22c-6.3,7.1-13.6,12.5-19.6,15.5c-6,3-10.8,3.5-13.8,3.1c-3-0.4-4.4-1.9-4.9-3.2
		C36.2,152.7,36.5,151.5,39.8,151z"/>
	
		<ellipse transform="matrix(0.6602 -0.7511 0.7511 0.6602 -152.7722 394.2601)" class="st8" cx="359.4" cy="366" rx="59.1" ry="31.1"/>
	<path class="st7" d="M333.9,396.3c-8.7-9-2.7-30.5,13.4-48c16.1-17.5,36.2-24.4,44.9-15.4c8.7,9,2.7,30.5-13.4,48
		C362.7,398.4,342.6,405.3,333.9,396.3z"/>
	<path class="st0" d="M325.4,394.7c-0.2-3.2-1.5-9.2,0.3-17.4c1.8-8.2,6.6-18.7,12.5-26.2c5.9-7.6,12.7-12.2,14.7-13.9
		c2-1.8-1-0.7-5.8,3.2c-4.9,3.9-11.6,10.4-16.7,17.8c-5.1,7.3-8.6,15.4-10.2,21.8c-1.6,6.4-1.2,11.1-0.3,14c0.9,2.9,2.4,4,3.6,4.2
		C324.6,398.5,325.6,397.9,325.4,394.7z"/>
	<path class="st7" d="M165,86.4c6.6,0,12-6.1,12-13.5c0-7.4-5.4-13.5-12-13.5c-6.6,0-12,6.1-12,13.5C153,80.3,158.4,86.4,165,86.4z"
		/>
	<ellipse class="st7" cx="202.6" cy="153.2" rx="12.4" ry="13.5"/>
	<ellipse class="st8" cx="53.9" cy="228.9" rx="21.1" ry="24.3"/>
	<path class="st7" d="M202.4,413.6c6.4,0,11.7-6.1,11.7-13.5s-5.2-13.5-11.7-13.5c-6.4,0-11.7,6.1-11.7,13.5S196,413.6,202.4,413.6z
		"/>
	<ellipse class="st9" cx="369.9" cy="147.8" rx="12.8" ry="15.8"/>
	<path class="st8" d="M320.5,43.8c-7.7,13.7,5.9,37.3,30.3,52.7c24.4,15.4,50.5,16.9,58.2,3.2c7.7-13.7-5.9-37.3-30.3-52.7
		C354.3,31.6,328.2,30.1,320.5,43.8z"/>
	
		<ellipse transform="matrix(0.5524 -0.8336 0.8336 0.5524 104.7122 339.1572)" class="st7" cx="368.2" cy="72.1" rx="20.7" ry="38.2"/>
	<path class="st0" d="M329,55.1c0.6,2.9,0.7,8.3,4,15c3.3,6.7,9.8,14.6,16.6,19.8c6.7,5.1,13.7,7.5,15.8,8.5c2.1,1-0.7,0.8-5.8-1.3
		c-5.1-2.2-12.4-6.2-18.4-11.3c-6-5.1-10.8-11.3-13.6-16.4c-2.8-5.2-3.5-9.4-3.4-12.1c0.2-2.8,1.2-4.1,2.2-4.6
		C327.4,52,328.4,52.3,329,55.1z"/>
	<ellipse class="st0" cx="127.6" cy="348.3" rx="36.8" ry="41.6"/>
	<path class="st7" d="M132.8,368.6c10.1,0,18.4-9.4,18.4-20.8c0-11.5-8.3-20.8-18.4-20.8s-18.4,9.4-18.4,20.8
		C114.4,359.3,122.7,368.6,132.8,368.6z"/>
	<path class="st9" d="M119.8,319.5c2.5-1.9,8.1-4,14-4.4c5.9-0.4,12.2,1,17.1,5.9c4.9,4.9,8.4,13.3,9.6,18.4
		c1.2,5.1,0.2,6.9-1.7,5.5c-1.8-1.3-4.5-5.7-7.1-10.2c-2.6-4.5-5.2-9-8.3-11.2c-3.2-2.2-6.9-2.2-11.2-1.6c-4.3,0.6-9.1,1.6-11.8,1.3
		C117.8,323,117.3,321.4,119.8,319.5z"/>
	
		<ellipse transform="matrix(0.8259 -0.5639 0.5639 0.8259 -100.2977 209.5784)" class="st10" cx="289.2" cy="267.2" rx="55.7" ry="49.2"/>
	
		<ellipse transform="matrix(0.8259 -0.5639 0.5639 0.8259 -97.451 206.6057)" class="st11" cx="285.8" cy="261.1" rx="27.8" ry="24.6"/>
	<path class="st12" d="M326.8,254.1c0.2-4.2-1.7-12-5.7-18.8c-4-6.8-10.3-12.8-19.4-14.5c-9.1-1.7-21,0.8-27.6,3.3
		c-6.5,2.5-7.7,5-4.8,6c2.8,1,9.7,0.6,16.6,0.1c6.9-0.5,13.8-1.1,18.7,0.7c4.8,1.8,7.6,6,10.2,11.2c2.6,5.2,5.1,11.3,7.4,14
		C324.4,258.9,326.6,258.3,326.8,254.1z"/>
</g>
</svg>
