<?xml version="1.0" encoding="utf-8"?>
<!-- Generator: Adobe Illustrator 23.0.1, SVG Export Plug-In . SVG Version: 6.00 Build 0)  -->
<svg version="1.1" id="Warstwa_1" xmlns="http://www.w3.org/2000/svg" xmlns:xlink="http://www.w3.org/1999/xlink" x="0px" y="0px"
	 viewBox="0 0 713.8 971" style="enable-background:new 0 0 713.8 971;" xml:space="preserve">
<style type="text/css">
	.st0{fill-rule:evenodd;clip-rule:evenodd;fill:#FFFFFF;}
</style>
<g>
	<path class="st0" d="M29.6,314.9c1.2-0.6,3.1-1.7,4.1-2.5c1.1-0.9,1.4-1.6,1.6-2.9c0.2-1.3,0.2-3.2,0.3-4c0.1-0.8,0.4-0.4,0.8,0.7
		c0.4,1.1,1,3,1.6,4.2c0.6,1.2,1.1,1.7,1.8,2c0.7,0.3,1.5,0.3,2.9,0.4c1.4,0.1,3.3,0.3,4,0.4c0.7,0.2,0.3,0.3-1,0.6
		c-1.2,0.3-3.2,0.6-4.5,1.1c-1.3,0.5-1.8,1.3-2.2,2c-0.4,0.7-0.6,1.3-0.7,2.7c-0.1,1.4-0.1,3.5-0.2,4.4c-0.1,0.9-0.3,0.4-0.7-0.8
		c-0.4-1.3-1-3.3-1.8-4.6c-0.8-1.3-1.6-1.7-2.4-2c-0.8-0.2-1.5-0.2-2.5-0.3c-1-0.1-2.3-0.2-2.6-0.4
		C27.8,315.8,28.4,315.6,29.6,314.9z"/>
	<path class="st0" d="M170.1,311.8c1.2-0.6,3.1-1.7,4.1-2.5c1.1-0.9,1.4-1.6,1.6-2.9c0.2-1.3,0.2-3.2,0.3-4c0.1-0.8,0.4-0.4,0.8,0.7
		c0.4,1.1,1,3,1.6,4.2c0.6,1.2,1.1,1.7,1.8,2c0.7,0.3,1.5,0.3,2.9,0.4c1.4,0.1,3.3,0.3,4,0.4c0.7,0.2,0.3,0.3-1,0.6
		c-1.2,0.3-3.2,0.6-4.5,1.1c-1.3,0.5-1.8,1.3-2.2,2c-0.4,0.7-0.6,1.3-0.7,2.7c-0.1,1.4-0.1,3.5-0.2,4.4c-0.1,0.9-0.3,0.4-0.7-0.8
		c-0.4-1.3-1-3.3-1.8-4.6c-0.8-1.3-1.6-1.7-2.4-2c-0.8-0.2-1.5-0.2-2.5-0.3c-1-0.1-2.3-0.2-2.6-0.4
		C168.3,312.6,168.9,312.4,170.1,311.8z"/>
	<path class="st0" d="M197,432.3c1.2-0.6,3.1-1.7,4.1-2.5c1.1-0.9,1.4-1.6,1.6-2.9c0.2-1.3,0.2-3.2,0.3-4c0.1-0.8,0.4-0.4,0.8,0.7
		c0.4,1.1,1,3,1.6,4.2c0.6,1.2,1.1,1.7,1.8,2c0.7,0.3,1.5,0.3,2.9,0.4c1.4,0.1,3.3,0.3,4,0.4c0.7,0.2,0.3,0.3-1,0.6
		c-1.2,0.3-3.2,0.6-4.5,1.1c-1.3,0.5-1.8,1.3-2.2,2c-0.4,0.7-0.6,1.3-0.7,2.7c-0.1,1.4-0.1,3.5-0.2,4.4c-0.1,0.9-0.3,0.4-0.7-0.8
		c-0.4-1.3-1-3.3-1.8-4.6c-0.8-1.3-1.6-1.7-2.4-2c-0.8-0.2-1.5-0.2-2.5-0.3c-1-0.1-2.3-0.2-2.6-0.4
		C195.1,433.1,195.8,432.9,197,432.3z"/>
	<path class="st0" d="M522.4,355.8c1.2-0.6,3.1-1.7,4.1-2.5c1.1-0.9,1.4-1.6,1.6-2.9c0.2-1.3,0.2-3.2,0.3-4c0.1-0.8,0.4-0.4,0.8,0.7
		c0.4,1.1,1,3,1.6,4.2c0.6,1.2,1.1,1.7,1.8,2c0.7,0.3,1.5,0.3,2.9,0.4c1.4,0.1,3.3,0.3,4,0.4c0.7,0.2,0.3,0.3-1,0.6
		c-1.2,0.3-3.2,0.6-4.5,1.1c-1.3,0.5-1.8,1.3-2.2,2c-0.4,0.7-0.6,1.3-0.7,2.7c-0.1,1.4-0.1,3.5-0.2,4.4c-0.1,0.9-0.3,0.4-0.7-0.8
		c-0.4-1.3-1-3.3-1.8-4.6c-0.8-1.3-1.6-1.7-2.4-2c-0.8-0.2-1.5-0.2-2.5-0.3c-1-0.1-2.3-0.2-2.6-0.4
		C520.5,356.6,521.2,356.4,522.4,355.8z"/>
	<path class="st0" d="M466.7,127.1c1.2-0.6,3.1-1.7,4.1-2.5c1.1-0.9,1.4-1.6,1.6-2.9c0.2-1.3,0.2-3.2,0.3-4c0.1-0.8,0.4-0.4,0.8,0.7
		c0.4,1.1,1,3,1.6,4.2c0.6,1.2,1.1,1.7,1.8,2c0.7,0.3,1.5,0.3,2.9,0.4c1.4,0.1,3.3,0.3,4,0.4c0.7,0.2,0.3,0.3-1,0.6
		c-1.2,0.3-3.2,0.6-4.5,1.1c-1.3,0.5-1.8,1.3-2.2,2c-0.4,0.7-0.6,1.3-0.7,2.7c-0.1,1.4-0.1,3.5-0.2,4.4c-0.1,0.9-0.3,0.4-0.7-0.8
		c-0.4-1.3-1-3.3-1.8-4.6c-0.8-1.3-1.6-1.7-2.4-2c-0.8-0.2-1.5-0.2-2.5-0.3c-1-0.1-2.3-0.2-2.6-0.4
		C464.8,128,465.4,127.8,466.7,127.1z"/>
	<path class="st0" d="M660,275.8c1.2-0.6,3.1-1.7,4.1-2.5c1.1-0.9,1.4-1.6,1.6-2.9c0.2-1.3,0.2-3.2,0.3-4c0.1-0.8,0.4-0.4,0.8,0.7
		c0.4,1.1,1,3,1.6,4.2c0.6,1.2,1.1,1.7,1.8,2c0.7,0.3,1.5,0.3,2.9,0.4c1.4,0.1,3.3,0.3,4,0.4c0.7,0.2,0.3,0.3-1,0.6
		c-1.2,0.3-3.2,0.6-4.5,1.1c-1.3,0.5-1.8,1.3-2.2,2c-0.4,0.7-0.6,1.3-0.7,2.7c-0.1,1.4-0.1,3.5-0.2,4.4c-0.1,0.9-0.3,0.4-0.7-0.8
		c-0.4-1.3-1-3.3-1.8-4.6c-0.8-1.3-1.6-1.7-2.4-2c-0.8-0.2-1.5-0.2-2.5-0.3c-1-0.1-2.3-0.2-2.6-0.4
		C658.1,276.6,658.8,276.4,660,275.8z"/>
	<path class="st0" d="M138.1,647.8c1.2-0.6,3.1-1.7,4.1-2.5c1.1-0.9,1.4-1.6,1.6-2.9c0.2-1.3,0.2-3.2,0.3-4c0.1-0.8,0.4-0.4,0.8,0.7
		c0.4,1.1,1,3,1.6,4.2c0.6,1.2,1.1,1.7,1.8,2c0.7,0.3,1.5,0.3,2.9,0.4c1.4,0.1,3.3,0.3,4,0.4c0.7,0.2,0.3,0.3-1,0.6
		c-1.2,0.3-3.2,0.6-4.5,1.1c-1.3,0.5-1.8,1.3-2.2,2c-0.4,0.7-0.6,1.3-0.7,2.7c-0.1,1.4-0.1,3.5-0.2,4.4c-0.1,0.9-0.3,0.4-0.7-0.8
		s-1-3.3-1.8-4.6c-0.8-1.3-1.6-1.7-2.4-2c-0.8-0.2-1.5-0.2-2.5-0.3c-1-0.1-2.3-0.2-2.6-0.4C136.3,648.6,136.9,648.4,138.1,647.8z"/>
	<path class="st0" d="M1.6,716.6c1.2-0.6,3.1-1.7,4.1-2.5c1.1-0.9,1.4-1.6,1.6-2.9c0.2-1.3,0.2-3.2,0.3-4c0.1-0.8,0.4-0.4,0.8,0.7
		c0.4,1.1,1,3,1.6,4.2c0.6,1.2,1.1,1.7,1.8,2c0.7,0.3,1.5,0.3,2.9,0.4c1.4,0.1,3.3,0.3,4,0.4c0.7,0.2,0.3,0.3-1,0.6
		c-1.2,0.3-3.2,0.6-4.5,1.1c-1.3,0.5-1.8,1.3-2.2,2c-0.4,0.7-0.6,1.3-0.7,2.7c-0.1,1.4-0.1,3.5-0.2,4.4c-0.1,0.9-0.3,0.4-0.7-0.8
		c-0.4-1.3-1-3.3-1.8-4.6c-0.8-1.3-1.6-1.7-2.4-2C4.4,718,3.7,718,2.7,718c-1-0.1-2.3-0.2-2.6-0.4C-0.2,717.5,0.4,717.3,1.6,716.6z"
		/>
	<path class="st0" d="M194.9,823.1c1.2-0.6,3.1-1.7,4.1-2.5c1.1-0.9,1.4-1.6,1.6-2.9c0.2-1.3,0.2-3.2,0.3-4c0.1-0.8,0.4-0.4,0.8,0.7
		c0.4,1.1,1,3,1.6,4.2c0.6,1.2,1.1,1.7,1.8,2c0.7,0.3,1.5,0.3,2.9,0.4c1.4,0.1,3.3,0.3,4,0.4c0.7,0.2,0.3,0.3-1,0.6
		c-1.2,0.3-3.2,0.6-4.5,1.1c-1.3,0.5-1.8,1.3-2.2,2c-0.4,0.7-0.6,1.3-0.7,2.7c-0.1,1.4-0.1,3.5-0.2,4.4c-0.1,0.9-0.3,0.4-0.7-0.8
		c-0.4-1.3-1-3.3-1.8-4.6c-0.8-1.3-1.6-1.7-2.4-2c-0.8-0.2-1.5-0.2-2.5-0.3c-1-0.1-2.3-0.2-2.6-0.4C193,824,193.7,823.8,194.9,823.1
		z"/>
	<path class="st0" d="M518,798c1.2-0.6,3.1-1.7,4.1-2.5c1.1-0.9,1.4-1.6,1.6-2.9c0.2-1.3,0.2-3.2,0.3-4c0.1-0.8,0.4-0.4,0.8,0.7
		c0.4,1.1,1,3,1.6,4.2c0.6,1.2,1.1,1.7,1.8,2c0.7,0.3,1.5,0.3,2.9,0.4c1.4,0.1,3.3,0.3,4,0.4c0.7,0.2,0.3,0.3-1,0.6
		c-1.2,0.3-3.2,0.6-4.5,1.1c-1.3,0.5-1.8,1.3-2.2,2c-0.4,0.7-0.6,1.3-0.7,2.7c-0.1,1.4-0.1,3.5-0.2,4.4c-0.1,0.9-0.3,0.4-0.7-0.8
		s-1-3.3-1.8-4.6c-0.8-1.3-1.6-1.7-2.4-2c-0.8-0.2-1.5-0.2-2.5-0.3c-1-0.1-2.3-0.2-2.6-0.4C516.2,798.8,516.8,798.6,518,798z"/>
	<path class="st0" d="M136.2,466.7c0.7-0.3,1.7-0.9,2.3-1.4c0.6-0.5,0.8-0.9,0.9-1.6s0.1-1.8,0.2-2.2c0.1-0.4,0.2-0.2,0.4,0.4
		c0.2,0.6,0.5,1.6,0.9,2.3c0.3,0.7,0.6,0.9,1,1.1c0.4,0.1,0.8,0.2,1.6,0.2c0.8,0.1,1.8,0.1,2.2,0.2c0.4,0.1,0.1,0.2-0.5,0.3
		c-0.7,0.1-1.8,0.3-2.5,0.6c-0.7,0.3-1,0.7-1.2,1.1c-0.2,0.4-0.3,0.7-0.4,1.5c-0.1,0.8-0.1,1.9-0.1,2.4c-0.1,0.5-0.2,0.2-0.4-0.4
		c-0.2-0.7-0.6-1.8-1-2.5c-0.4-0.7-0.9-0.9-1.3-1.1c-0.4-0.1-0.8-0.1-1.4-0.2c-0.5,0-1.3-0.1-1.4-0.2
		C135.2,467.2,135.5,467.1,136.2,466.7z"/>
	<path class="st0" d="M8.8,448c0.7-0.3,1.7-0.9,2.3-1.4c0.6-0.5,0.8-0.9,0.9-1.6c0.1-0.7,0.1-1.8,0.2-2.2c0.1-0.4,0.2-0.2,0.4,0.4
		c0.2,0.6,0.5,1.6,0.9,2.3c0.3,0.7,0.6,0.9,1,1.1c0.4,0.1,0.8,0.2,1.6,0.2c0.8,0.1,1.8,0.1,2.2,0.2c0.4,0.1,0.1,0.2-0.5,0.3
		c-0.7,0.1-1.8,0.3-2.5,0.6c-0.7,0.3-1,0.7-1.2,1.1c-0.2,0.4-0.3,0.7-0.4,1.5c-0.1,0.8-0.1,1.9-0.1,2.4c-0.1,0.5-0.2,0.2-0.4-0.4
		c-0.2-0.7-0.6-1.8-1-2.5c-0.4-0.7-0.9-0.9-1.3-1.1c-0.4-0.1-0.8-0.1-1.4-0.2c-0.5,0-1.3-0.1-1.4-0.2C7.8,448.5,8.1,448.3,8.8,448z"
		/>
	<path class="st0" d="M96,600.6c0.7-0.3,1.7-0.9,2.3-1.4c0.6-0.5,0.8-0.9,0.9-1.6c0.1-0.7,0.1-1.8,0.2-2.2c0.1-0.4,0.2-0.2,0.4,0.4
		c0.2,0.6,0.5,1.6,0.9,2.3c0.3,0.7,0.6,0.9,1,1.1c0.4,0.1,0.8,0.2,1.6,0.2c0.8,0.1,1.8,0.1,2.2,0.2c0.4,0.1,0.1,0.2-0.5,0.3
		c-0.7,0.1-1.8,0.3-2.5,0.6c-0.7,0.3-1,0.7-1.2,1.1c-0.2,0.4-0.3,0.7-0.4,1.5c-0.1,0.8-0.1,1.9-0.1,2.4c-0.1,0.5-0.2,0.2-0.4-0.4
		c-0.2-0.7-0.6-1.8-1-2.5c-0.4-0.7-0.9-0.9-1.3-1.1c-0.4-0.1-0.8-0.1-1.4-0.2c-0.5,0-1.3-0.1-1.4-0.2C95,601.1,95.4,600.9,96,600.6z
		"/>
	<path class="st0" d="M124.7,168.7c0.7-0.3,1.7-0.9,2.3-1.4c0.6-0.5,0.8-0.9,0.9-1.6c0.1-0.7,0.1-1.8,0.2-2.2
		c0.1-0.4,0.2-0.2,0.4,0.4c0.2,0.6,0.5,1.6,0.9,2.3c0.3,0.7,0.6,0.9,1,1.1c0.4,0.1,0.8,0.2,1.6,0.2c0.8,0.1,1.8,0.1,2.2,0.2
		c0.4,0.1,0.1,0.2-0.5,0.3c-0.7,0.1-1.8,0.3-2.5,0.6c-0.7,0.3-1,0.7-1.2,1.1c-0.2,0.4-0.3,0.7-0.4,1.5c-0.1,0.8-0.1,1.9-0.1,2.4
		c-0.1,0.5-0.2,0.2-0.4-0.4c-0.2-0.7-0.6-1.8-1-2.5c-0.4-0.7-0.9-0.9-1.3-1.1c-0.4-0.1-0.8-0.1-1.4-0.2c-0.5,0-1.3-0.1-1.4-0.2
		C123.7,169.2,124,169.1,124.7,168.7z"/>
	<path class="st0" d="M526.1,241.7c0.7-0.3,1.7-0.9,2.3-1.4c0.6-0.5,0.8-0.9,0.9-1.6c0.1-0.7,0.1-1.8,0.2-2.2
		c0.1-0.4,0.2-0.2,0.4,0.4c0.2,0.6,0.5,1.6,0.9,2.3c0.3,0.7,0.6,0.9,1,1.1s0.8,0.2,1.6,0.2c0.8,0.1,1.8,0.1,2.2,0.2
		c0.4,0.1,0.1,0.2-0.5,0.3c-0.7,0.1-1.8,0.3-2.5,0.6c-0.7,0.3-1,0.7-1.2,1.1c-0.2,0.4-0.3,0.7-0.4,1.5c-0.1,0.8-0.1,1.9-0.1,2.4
		c-0.1,0.5-0.2,0.2-0.4-0.4c-0.2-0.7-0.6-1.8-1-2.5c-0.4-0.7-0.9-0.9-1.3-1.1c-0.4-0.1-0.8-0.1-1.4-0.2c-0.5,0-1.3-0.1-1.4-0.2
		C525.1,242.2,525.4,242,526.1,241.7z"/>
	<path class="st0" d="M618.5,451c0.7-0.3,1.7-0.9,2.3-1.4c0.6-0.5,0.8-0.9,0.9-1.6c0.1-0.7,0.1-1.8,0.2-2.2c0.1-0.4,0.2-0.2,0.4,0.4
		c0.2,0.6,0.5,1.6,0.9,2.3c0.3,0.7,0.6,0.9,1,1.1c0.4,0.1,0.8,0.2,1.6,0.2c0.8,0.1,1.8,0.1,2.2,0.2c0.4,0.1,0.1,0.2-0.5,0.3
		c-0.7,0.1-1.8,0.3-2.5,0.6c-0.7,0.3-1,0.7-1.2,1.1c-0.2,0.4-0.3,0.7-0.4,1.5c-0.1,0.8-0.1,1.9-0.1,2.4c-0.1,0.5-0.2,0.2-0.4-0.4
		c-0.2-0.7-0.6-1.8-1-2.5c-0.4-0.7-0.9-0.9-1.3-1.1c-0.4-0.1-0.8-0.1-1.4-0.2c-0.5,0-1.3-0.1-1.4-0.2
		C617.5,451.5,617.8,451.4,618.5,451z"/>
	<path class="st0" d="M586.9,675.1c0.7-0.3,1.7-0.9,2.3-1.4c0.6-0.5,0.8-0.9,0.9-1.6c0.1-0.7,0.1-1.8,0.2-2.2
		c0.1-0.4,0.2-0.2,0.4,0.4c0.2,0.6,0.5,1.6,0.9,2.3c0.3,0.7,0.6,0.9,1,1.1c0.4,0.1,0.8,0.2,1.6,0.2c0.8,0.1,1.8,0.1,2.2,0.2
		c0.4,0.1,0.1,0.2-0.5,0.3c-0.7,0.1-1.8,0.3-2.5,0.6c-0.7,0.3-1,0.7-1.2,1.1c-0.2,0.4-0.3,0.7-0.4,1.5c-0.1,0.8-0.1,1.9-0.1,2.4
		c-0.1,0.5-0.2,0.2-0.4-0.4c-0.2-0.7-0.6-1.8-1-2.5c-0.4-0.7-0.9-0.9-1.3-1.1c-0.4-0.1-0.8-0.1-1.4-0.2c-0.5,0-1.3-0.1-1.4-0.2
		C585.9,675.5,586.2,675.4,586.9,675.1z"/>
	<path class="st0" d="M646.9,539.5c0.7-0.3,1.7-0.9,2.3-1.4c0.6-0.5,0.8-0.9,0.9-1.6c0.1-0.7,0.1-1.8,0.2-2.2
		c0.1-0.4,0.2-0.2,0.4,0.4c0.2,0.6,0.5,1.6,0.9,2.3c0.3,0.7,0.6,0.9,1,1.1c0.4,0.1,0.8,0.2,1.6,0.2c0.8,0.1,1.8,0.1,2.2,0.2
		c0.4,0.1,0.1,0.2-0.5,0.3c-0.7,0.1-1.8,0.3-2.5,0.6c-0.7,0.3-1,0.7-1.2,1.1c-0.2,0.4-0.3,0.7-0.4,1.5c-0.1,0.8-0.1,1.9-0.1,2.4
		c-0.1,0.5-0.2,0.2-0.4-0.4c-0.2-0.7-0.6-1.8-1-2.5c-0.4-0.7-0.9-0.9-1.3-1.1c-0.4-0.1-0.8-0.1-1.4-0.2c-0.5,0-1.3-0.1-1.4-0.2
		C645.9,540,646.2,539.9,646.9,539.5z"/>
	<path class="st0" d="M643.2,803.2c0.7-0.3,1.7-0.9,2.3-1.4c0.6-0.5,0.8-0.9,0.9-1.6c0.1-0.7,0.1-1.8,0.2-2.2
		c0.1-0.4,0.2-0.2,0.4,0.4c0.2,0.6,0.5,1.6,0.9,2.3c0.3,0.7,0.6,0.9,1,1.1c0.4,0.1,0.8,0.2,1.6,0.2c0.8,0.1,1.8,0.1,2.2,0.2
		c0.4,0.1,0.1,0.2-0.5,0.3c-0.7,0.1-1.8,0.3-2.5,0.6c-0.7,0.3-1,0.7-1.2,1.1c-0.2,0.4-0.3,0.7-0.4,1.5c-0.1,0.8-0.1,1.9-0.1,2.4
		c-0.1,0.5-0.2,0.2-0.4-0.4c-0.2-0.7-0.6-1.8-1-2.5c-0.4-0.7-0.9-0.9-1.3-1.1c-0.4-0.1-0.8-0.1-1.4-0.2c-0.5,0-1.3-0.1-1.4-0.2
		C642.2,803.7,642.5,803.6,643.2,803.2z"/>
	<path class="st0" d="M319.3,195.6c0.3-0.2,0.8-0.4,1.1-0.7c0.3-0.2,0.4-0.4,0.4-0.8c0-0.3,0-0.8,0.1-1c0-0.2,0.1-0.1,0.2,0.2
		c0.1,0.3,0.3,0.8,0.4,1.1c0.1,0.3,0.3,0.4,0.5,0.5c0.2,0.1,0.4,0.1,0.8,0.1c0.4,0,0.9,0.1,1,0.1c0.2,0,0.1,0.1-0.3,0.2
		c-0.3,0.1-0.8,0.2-1.2,0.3c-0.3,0.1-0.5,0.3-0.6,0.5c-0.1,0.2-0.2,0.3-0.2,0.7c0,0.4,0,0.9-0.1,1.1c0,0.2-0.1,0.1-0.2-0.2
		c-0.1-0.3-0.3-0.9-0.5-1.2c-0.2-0.3-0.4-0.5-0.6-0.5c-0.2-0.1-0.4-0.1-0.7-0.1c-0.3,0-0.6,0-0.7-0.1
		C318.9,195.8,319,195.7,319.3,195.6z"/>
	<path class="st0" d="M83.2,780.6c0.3-0.2,0.8-0.4,1.1-0.7c0.3-0.2,0.4-0.4,0.4-0.8c0-0.3,0-0.8,0.1-1c0-0.2,0.1-0.1,0.2,0.2
		c0.1,0.3,0.3,0.8,0.4,1.1c0.1,0.3,0.3,0.4,0.5,0.5c0.2,0.1,0.4,0.1,0.8,0.1c0.4,0,0.9,0.1,1,0.1c0.2,0,0.1,0.1-0.3,0.2
		c-0.3,0.1-0.8,0.2-1.2,0.3c-0.3,0.1-0.5,0.3-0.6,0.5c-0.1,0.2-0.2,0.3-0.2,0.7c0,0.4,0,0.9-0.1,1.1c0,0.2-0.1,0.1-0.2-0.2
		c-0.1-0.3-0.3-0.9-0.5-1.2c-0.2-0.3-0.4-0.5-0.6-0.5c-0.2-0.1-0.4-0.1-0.7-0.1c-0.3,0-0.6,0-0.7-0.1
		C82.7,780.8,82.9,780.7,83.2,780.6z"/>
	<path class="st0" d="M554.6,943.8c0.3-0.2,0.8-0.4,1.1-0.7c0.3-0.2,0.4-0.4,0.4-0.8c0-0.3,0-0.8,0.1-1c0-0.2,0.1-0.1,0.2,0.2
		c0.1,0.3,0.3,0.8,0.4,1.1c0.1,0.3,0.3,0.4,0.5,0.5c0.2,0.1,0.4,0.1,0.8,0.1s0.9,0.1,1,0.1c0.2,0,0.1,0.1-0.3,0.2
		c-0.3,0.1-0.8,0.2-1.2,0.3c-0.3,0.1-0.5,0.3-0.6,0.5c-0.1,0.2-0.2,0.3-0.2,0.7c0,0.4,0,0.9-0.1,1.1c0,0.2-0.1,0.1-0.2-0.2
		c-0.1-0.3-0.3-0.9-0.5-1.2c-0.2-0.3-0.4-0.5-0.6-0.5c-0.2-0.1-0.4-0.1-0.7-0.1c-0.3,0-0.6,0-0.7-0.1
		C554.1,944,554.2,943.9,554.6,943.8z"/>
	<path class="st0" d="M227.2,968.6c0.3-0.2,0.8-0.4,1.1-0.7c0.3-0.2,0.4-0.4,0.4-0.8c0-0.3,0-0.8,0.1-1c0-0.2,0.1-0.1,0.2,0.2
		c0.1,0.3,0.3,0.8,0.4,1.1c0.1,0.3,0.3,0.4,0.5,0.5c0.2,0.1,0.4,0.1,0.8,0.1c0.4,0,0.9,0.1,1,0.1c0.2,0,0.1,0.1-0.3,0.2
		c-0.3,0.1-0.8,0.2-1.2,0.3c-0.3,0.1-0.5,0.3-0.6,0.5c-0.1,0.2-0.2,0.3-0.2,0.7c0,0.4,0,0.9-0.1,1.1c0,0.2-0.1,0.1-0.2-0.2
		c-0.1-0.3-0.3-0.9-0.5-1.2c-0.2-0.3-0.4-0.5-0.6-0.5c-0.2-0.1-0.4-0.1-0.7-0.1c-0.3,0-0.6,0-0.7-0.1
		C226.7,968.8,226.9,968.7,227.2,968.6z"/>
	<path class="st0" d="M406.6,573.8c0.3-0.2,0.8-0.4,1.1-0.7c0.3-0.2,0.4-0.4,0.4-0.8c0-0.3,0-0.8,0.1-1c0-0.2,0.1-0.1,0.2,0.2
		c0.1,0.3,0.3,0.8,0.4,1.1c0.1,0.3,0.3,0.4,0.5,0.5c0.2,0.1,0.4,0.1,0.8,0.1c0.4,0,0.9,0.1,1,0.1c0.2,0,0.1,0.1-0.3,0.2
		c-0.3,0.1-0.8,0.2-1.2,0.3c-0.3,0.1-0.5,0.3-0.6,0.5c-0.1,0.2-0.2,0.3-0.2,0.7c0,0.4,0,0.9-0.1,1.1c0,0.2-0.1,0.1-0.2-0.2
		c-0.1-0.3-0.3-0.9-0.5-1.2c-0.2-0.3-0.4-0.5-0.6-0.5c-0.2-0.1-0.4-0.1-0.7-0.1c-0.3,0-0.6,0-0.7-0.1
		C406.1,574,406.2,573.9,406.6,573.8z"/>
	<path class="st0" d="M399.3,861.5c0.3-0.2,0.8-0.4,1.1-0.7c0.3-0.2,0.4-0.4,0.4-0.8c0-0.3,0-0.8,0.1-1c0-0.2,0.1-0.1,0.2,0.2
		c0.1,0.3,0.3,0.8,0.4,1.1c0.1,0.3,0.3,0.4,0.5,0.5c0.2,0.1,0.4,0.1,0.8,0.1c0.4,0,0.9,0.1,1,0.1c0.2,0,0.1,0.1-0.3,0.2
		c-0.3,0.1-0.8,0.2-1.2,0.3c-0.3,0.1-0.5,0.3-0.6,0.5c-0.1,0.2-0.2,0.3-0.2,0.7c0,0.4,0,0.9-0.1,1.1c0,0.2-0.1,0.1-0.2-0.2
		c-0.1-0.3-0.3-0.9-0.5-1.2c-0.2-0.3-0.4-0.5-0.6-0.5c-0.2-0.1-0.4-0.1-0.7-0.1c-0.3,0-0.6,0-0.7-0.1
		C398.8,861.7,399,861.7,399.3,861.5z"/>
	<path class="st0" d="M262.3,54.6c0.3-0.2,0.8-0.4,1.1-0.7c0.3-0.2,0.4-0.4,0.4-0.8c0-0.3,0-0.8,0.1-1c0-0.2,0.1-0.1,0.2,0.2
		c0.1,0.3,0.3,0.8,0.4,1.1c0.1,0.3,0.3,0.4,0.5,0.5c0.2,0.1,0.4,0.1,0.8,0.1c0.4,0,0.9,0.1,1,0.1c0.2,0,0.1,0.1-0.3,0.2
		c-0.3,0.1-0.8,0.2-1.2,0.3c-0.3,0.1-0.5,0.3-0.6,0.5c-0.1,0.2-0.2,0.3-0.2,0.7c0,0.4,0,0.9-0.1,1.1c0,0.2-0.1,0.1-0.2-0.2
		c-0.1-0.3-0.3-0.9-0.5-1.2c-0.2-0.3-0.4-0.5-0.6-0.5c-0.2-0.1-0.4-0.1-0.7-0.1c-0.3,0-0.6,0-0.7-0.1
		C261.9,54.8,262,54.7,262.3,54.6z"/>
	<path class="st0" d="M264.6,536.4c0.3-0.2,0.8-0.4,1.1-0.7c0.3-0.2,0.4-0.4,0.4-0.8c0-0.3,0-0.8,0.1-1c0-0.2,0.1-0.1,0.2,0.2
		c0.1,0.3,0.3,0.8,0.4,1.1c0.1,0.3,0.3,0.4,0.5,0.5c0.2,0.1,0.4,0.1,0.8,0.1c0.4,0,0.9,0.1,1,0.1c0.2,0,0.1,0.1-0.3,0.2
		c-0.3,0.1-0.8,0.2-1.2,0.3c-0.3,0.1-0.5,0.3-0.6,0.5c-0.1,0.2-0.2,0.3-0.2,0.7c0,0.4,0,0.9-0.1,1.1c0,0.2-0.1,0.1-0.2-0.2
		c-0.1-0.3-0.3-0.9-0.5-1.2c-0.2-0.3-0.4-0.5-0.6-0.5c-0.2-0.1-0.4-0.1-0.7-0.1c-0.3,0-0.6,0-0.7-0.1
		C264.1,536.6,264.3,536.6,264.6,536.4z"/>
	<path class="st0" d="M537.2,505.8c0.3-0.2,0.8-0.4,1.1-0.7c0.3-0.2,0.4-0.4,0.4-0.8c0-0.3,0-0.8,0.1-1c0-0.2,0.1-0.1,0.2,0.2
		c0.1,0.3,0.3,0.8,0.4,1.1c0.1,0.3,0.3,0.4,0.5,0.5c0.2,0.1,0.4,0.1,0.8,0.1c0.4,0,0.9,0.1,1,0.1c0.2,0,0.1,0.1-0.3,0.2
		c-0.3,0.1-0.8,0.2-1.2,0.3c-0.3,0.1-0.5,0.3-0.6,0.5c-0.1,0.2-0.2,0.3-0.2,0.7c0,0.4,0,0.9-0.1,1.1c0,0.2-0.1,0.1-0.2-0.2
		c-0.1-0.3-0.3-0.9-0.5-1.2s-0.4-0.5-0.6-0.5c-0.2-0.1-0.4-0.1-0.7-0.1c-0.3,0-0.6,0-0.7-0.1C536.7,506.1,536.9,506,537.2,505.8z"/>
	<path class="st0" d="M312.6,695.8c0.3-0.2,0.8-0.4,1.1-0.7c0.3-0.2,0.4-0.4,0.4-0.8c0-0.3,0-0.8,0.1-1s0.1-0.1,0.2,0.2
		c0.1,0.3,0.3,0.8,0.4,1.1c0.1,0.3,0.3,0.4,0.5,0.5c0.2,0.1,0.4,0.1,0.8,0.1c0.4,0,0.9,0.1,1,0.1c0.2,0,0.1,0.1-0.3,0.2
		c-0.3,0.1-0.8,0.2-1.2,0.3c-0.3,0.1-0.5,0.3-0.6,0.5c-0.1,0.2-0.2,0.3-0.2,0.7c0,0.4,0,0.9-0.1,1.1c0,0.2-0.1,0.1-0.2-0.2
		c-0.1-0.3-0.3-0.9-0.5-1.2s-0.4-0.5-0.6-0.5c-0.2-0.1-0.4-0.1-0.7-0.1c-0.3,0-0.6,0-0.7-0.1C312.1,696,312.2,695.9,312.6,695.8z"/>
	<path class="st0" d="M709.3,725.5c0.3-0.2,0.8-0.4,1.1-0.7c0.3-0.2,0.4-0.4,0.4-0.8c0-0.3,0-0.8,0.1-1c0-0.2,0.1-0.1,0.2,0.2
		c0.1,0.3,0.3,0.8,0.4,1.1c0.1,0.3,0.3,0.4,0.5,0.5c0.2,0.1,0.4,0.1,0.8,0.1c0.4,0,0.9,0.1,1,0.1c0.2,0,0.1,0.1-0.3,0.2
		c-0.3,0.1-0.8,0.2-1.2,0.3c-0.3,0.1-0.5,0.3-0.6,0.5c-0.1,0.2-0.2,0.3-0.2,0.7c0,0.4,0,0.9-0.1,1.1c0,0.2-0.1,0.1-0.2-0.2
		c-0.1-0.3-0.3-0.9-0.5-1.2c-0.2-0.3-0.4-0.5-0.6-0.5c-0.2-0.1-0.4-0.1-0.7-0.1c-0.3,0-0.6,0-0.7-0.1
		C708.8,725.7,709,725.7,709.3,725.5z"/>
	<path class="st0" d="M124.3,868.6c0.3-0.2,0.8-0.4,1.1-0.7c0.3-0.2,0.4-0.4,0.4-0.8c0-0.3,0-0.8,0.1-1c0-0.2,0.1-0.1,0.2,0.2
		c0.1,0.3,0.3,0.8,0.4,1.1c0.1,0.3,0.3,0.4,0.5,0.5c0.2,0.1,0.4,0.1,0.8,0.1c0.4,0,0.9,0.1,1,0.1c0.2,0,0.1,0.1-0.3,0.2
		s-0.8,0.2-1.2,0.3c-0.3,0.1-0.5,0.3-0.6,0.5c-0.1,0.2-0.2,0.3-0.2,0.7c0,0.4,0,0.9-0.1,1.1c0,0.2-0.1,0.1-0.2-0.2
		c-0.1-0.3-0.3-0.9-0.5-1.2c-0.2-0.3-0.4-0.5-0.6-0.5c-0.2-0.1-0.4-0.1-0.7-0.1c-0.3,0-0.6,0-0.7-0.1
		C123.9,868.8,124,868.7,124.3,868.6z"/>
	<path class="st0" d="M687.2,389.8c0.3-0.2,0.8-0.4,1.1-0.7c0.3-0.2,0.4-0.4,0.4-0.8c0-0.3,0-0.8,0.1-1c0-0.2,0.1-0.1,0.2,0.2
		c0.1,0.3,0.3,0.8,0.4,1.1c0.1,0.3,0.3,0.4,0.5,0.5c0.2,0.1,0.4,0.1,0.8,0.1c0.4,0,0.9,0.1,1,0.1c0.2,0,0.1,0.1-0.3,0.2
		c-0.3,0.1-0.8,0.2-1.2,0.3c-0.3,0.1-0.5,0.3-0.6,0.5c-0.1,0.2-0.2,0.3-0.2,0.7c0,0.4,0,0.9-0.1,1.1c0,0.2-0.1,0.1-0.2-0.2
		c-0.1-0.3-0.3-0.9-0.5-1.2c-0.2-0.3-0.4-0.5-0.6-0.5c-0.2-0.1-0.4-0.1-0.7-0.1c-0.3,0-0.6,0-0.7-0.1
		C686.7,390.1,686.9,390,687.2,389.8z"/>
	<path class="st0" d="M640.6,115.8c0.3-0.2,0.8-0.4,1.1-0.7c0.3-0.2,0.4-0.4,0.4-0.8c0-0.3,0-0.8,0.1-1c0-0.2,0.1-0.1,0.2,0.2
		c0.1,0.3,0.3,0.8,0.4,1.1c0.1,0.3,0.3,0.4,0.5,0.5c0.2,0.1,0.4,0.1,0.8,0.1c0.4,0,0.9,0.1,1,0.1c0.2,0,0.1,0.1-0.3,0.2
		c-0.3,0.1-0.8,0.2-1.2,0.3c-0.3,0.1-0.5,0.3-0.6,0.5c-0.1,0.2-0.2,0.3-0.2,0.7c0,0.4,0,0.9-0.1,1.1c0,0.2-0.1,0.1-0.2-0.2
		c-0.1-0.3-0.3-0.9-0.5-1.2c-0.2-0.3-0.4-0.5-0.6-0.5c-0.2-0.1-0.4-0.1-0.7-0.1c-0.3,0-0.6,0-0.7-0.1
		C640.1,116,640.2,115.9,640.6,115.8z"/>
	<path class="st0" d="M87.2,51.8c0.3-0.2,0.8-0.4,1.1-0.7c0.3-0.2,0.4-0.4,0.4-0.8c0-0.3,0-0.8,0.1-1s0.1-0.1,0.2,0.2
		c0.1,0.3,0.3,0.8,0.4,1.1c0.1,0.3,0.3,0.4,0.5,0.5c0.2,0.1,0.4,0.1,0.8,0.1c0.4,0,0.9,0.1,1,0.1c0.2,0,0.1,0.1-0.3,0.2
		c-0.3,0.1-0.8,0.2-1.2,0.3c-0.3,0.1-0.5,0.3-0.6,0.5c-0.1,0.2-0.2,0.3-0.2,0.7c0,0.4,0,0.9-0.1,1.1c0,0.2-0.1,0.1-0.2-0.2
		c-0.1-0.3-0.3-0.9-0.5-1.2c-0.2-0.3-0.4-0.5-0.6-0.5c-0.2-0.1-0.4-0.1-0.7-0.1c-0.3,0-0.6,0-0.7-0.1C86.7,52.1,86.9,52,87.2,51.8z"
		/>
	<path class="st0" d="M215.2,169.8c0.3-0.2,0.8-0.4,1.1-0.7c0.3-0.2,0.4-0.4,0.4-0.8c0-0.3,0-0.8,0.1-1c0-0.2,0.1-0.1,0.2,0.2
		c0.1,0.3,0.3,0.8,0.4,1.1c0.1,0.3,0.3,0.4,0.5,0.5c0.2,0.1,0.4,0.1,0.8,0.1c0.4,0,0.9,0.1,1,0.1c0.2,0,0.1,0.1-0.3,0.2
		c-0.3,0.1-0.8,0.2-1.2,0.3c-0.3,0.1-0.5,0.3-0.6,0.5c-0.1,0.2-0.2,0.3-0.2,0.7c0,0.4,0,0.9-0.1,1.1c0,0.2-0.1,0.1-0.2-0.2
		c-0.1-0.3-0.3-0.9-0.5-1.2c-0.2-0.3-0.4-0.5-0.6-0.5c-0.2-0.1-0.4-0.1-0.7-0.1c-0.3,0-0.6,0-0.7-0.1
		C214.7,170.1,214.9,170,215.2,169.8z"/>
	<path class="st0" d="M136.6,393.8c0.3-0.2,0.8-0.4,1.1-0.7c0.3-0.2,0.4-0.4,0.4-0.8c0-0.3,0-0.8,0.1-1c0-0.2,0.1-0.1,0.2,0.2
		c0.1,0.3,0.3,0.8,0.4,1.1c0.1,0.3,0.3,0.4,0.5,0.5c0.2,0.1,0.4,0.1,0.8,0.1c0.4,0,0.9,0.1,1,0.1c0.2,0,0.1,0.1-0.3,0.2
		c-0.3,0.1-0.8,0.2-1.2,0.3c-0.3,0.1-0.5,0.3-0.6,0.5c-0.1,0.2-0.2,0.3-0.2,0.7c0,0.4,0,0.9-0.1,1.1c0,0.2-0.1,0.1-0.2-0.2
		c-0.1-0.3-0.3-0.9-0.5-1.2c-0.2-0.3-0.4-0.5-0.6-0.5c-0.2-0.1-0.4-0.1-0.7-0.1c-0.3,0-0.6,0-0.7-0.1
		C136.1,394,136.2,393.9,136.6,393.8z"/>
	<path class="st0" d="M596.3,232.6c0.3-0.2,0.8-0.4,1.1-0.7c0.3-0.2,0.4-0.4,0.4-0.8c0-0.3,0-0.8,0.1-1c0-0.2,0.1-0.1,0.2,0.2
		c0.1,0.3,0.3,0.8,0.4,1.1c0.1,0.3,0.3,0.4,0.5,0.5c0.2,0.1,0.4,0.1,0.8,0.1c0.4,0,0.9,0.1,1,0.1c0.2,0,0.1,0.1-0.3,0.2
		c-0.3,0.1-0.8,0.2-1.2,0.3c-0.3,0.1-0.5,0.3-0.6,0.5c-0.1,0.2-0.2,0.3-0.2,0.7s0,0.9-0.1,1.1c0,0.2-0.1,0.1-0.2-0.2
		c-0.1-0.3-0.3-0.9-0.5-1.2c-0.2-0.3-0.4-0.5-0.6-0.5c-0.2-0.1-0.4-0.1-0.7-0.1c-0.3,0-0.6,0-0.7-0.1
		C595.9,232.8,596,232.7,596.3,232.6z"/>
	<path class="st0" d="M376.6,349.8c0.3-0.2,0.8-0.4,1.1-0.7c0.3-0.2,0.4-0.4,0.4-0.8c0-0.3,0-0.8,0.1-1c0-0.2,0.1-0.1,0.2,0.2
		c0.1,0.3,0.3,0.8,0.4,1.1c0.1,0.3,0.3,0.4,0.5,0.5c0.2,0.1,0.4,0.1,0.8,0.1c0.4,0,0.9,0.1,1,0.1c0.2,0,0.1,0.1-0.3,0.2
		c-0.3,0.1-0.8,0.2-1.2,0.3c-0.3,0.1-0.5,0.3-0.6,0.5c-0.1,0.2-0.2,0.3-0.2,0.7c0,0.4,0,0.9-0.1,1.1c0,0.2-0.1,0.1-0.2-0.2
		c-0.1-0.3-0.3-0.9-0.5-1.2c-0.2-0.3-0.4-0.5-0.6-0.5c-0.2-0.1-0.4-0.1-0.7-0.1c-0.3,0-0.6,0-0.7-0.1
		C376.1,350,376.2,349.9,376.6,349.8z"/>
	<path class="st0" d="M337,456.4c0.3-0.2,0.8-0.4,1.1-0.7c0.3-0.2,0.4-0.4,0.4-0.8c0-0.3,0-0.8,0.1-1c0-0.2,0.1-0.1,0.2,0.2
		c0.1,0.3,0.3,0.8,0.4,1.1c0.1,0.3,0.3,0.4,0.5,0.5c0.2,0.1,0.4,0.1,0.8,0.1c0.4,0,0.9,0.1,1,0.1c0.2,0,0.1,0.1-0.3,0.2
		c-0.3,0.1-0.8,0.2-1.2,0.3c-0.3,0.1-0.5,0.3-0.6,0.5c-0.1,0.2-0.2,0.3-0.2,0.7c0,0.4,0,0.9-0.1,1.1c0,0.2-0.1,0.1-0.2-0.2
		c-0.1-0.3-0.3-0.9-0.5-1.2c-0.2-0.3-0.4-0.5-0.6-0.5c-0.2-0.1-0.4-0.1-0.7-0.1c-0.3,0-0.6,0-0.7-0.1
		C336.5,456.6,336.7,456.5,337,456.4z"/>
	<path class="st0" d="M585.2,2.6c0.3-0.2,0.8-0.4,1.1-0.7c0.3-0.2,0.4-0.4,0.4-0.8c0-0.3,0-0.8,0.1-1s0.1-0.1,0.2,0.2
		c0.1,0.3,0.3,0.8,0.4,1.1c0.1,0.3,0.3,0.4,0.5,0.5c0.2,0.1,0.4,0.1,0.8,0.1c0.4,0,0.9,0.1,1,0.1c0.2,0,0.1,0.1-0.3,0.2
		c-0.3,0.1-0.8,0.2-1.2,0.3c-0.3,0.1-0.5,0.3-0.6,0.5c-0.1,0.2-0.2,0.3-0.2,0.7c0,0.4,0,0.9-0.1,1.1c0,0.2-0.1,0.1-0.2-0.2
		c-0.1-0.3-0.3-0.9-0.5-1.2c-0.2-0.3-0.4-0.5-0.6-0.5c-0.2-0.1-0.4-0.1-0.7-0.1c-0.3,0-0.6,0-0.7-0.1C584.7,2.8,584.9,2.7,585.2,2.6
		z"/>
	<path class="st0" d="M423.4,651.3c1.2-0.6,3.1-1.7,4.1-2.5c1.1-0.9,1.4-1.6,1.6-2.9c0.2-1.3,0.2-3.2,0.3-4c0.1-0.8,0.4-0.4,0.8,0.7
		c0.4,1.1,1,3,1.6,4.2c0.6,1.2,1.1,1.7,1.8,2c0.7,0.3,1.5,0.3,2.9,0.4c1.4,0.1,3.3,0.3,4,0.4c0.7,0.2,0.3,0.3-1,0.6
		c-1.2,0.3-3.2,0.6-4.5,1.1c-1.3,0.5-1.8,1.3-2.2,2c-0.4,0.7-0.6,1.3-0.7,2.7c-0.1,1.4-0.1,3.5-0.2,4.4c-0.1,0.9-0.3,0.4-0.7-0.8
		c-0.4-1.3-1-3.3-1.8-4.6c-0.8-1.3-1.6-1.7-2.4-2c-0.8-0.2-1.5-0.2-2.5-0.3c-1-0.1-2.3-0.2-2.6-0.4
		C421.5,652.1,422.2,651.9,423.4,651.3z"/>
	<path class="st0" d="M576.7,561.5c1.2-0.6,3.1-1.7,4.1-2.5c1.1-0.9,1.4-1.6,1.6-2.9c0.2-1.3,0.2-3.2,0.3-4c0.1-0.8,0.4-0.4,0.8,0.7
		c0.4,1.1,1,3,1.6,4.2c0.6,1.2,1.1,1.7,1.8,2c0.7,0.3,1.5,0.3,2.9,0.4c1.4,0.1,3.3,0.3,4,0.4c0.7,0.2,0.3,0.3-1,0.6
		c-1.2,0.3-3.2,0.6-4.5,1.1c-1.3,0.5-1.8,1.3-2.2,2c-0.4,0.7-0.6,1.3-0.7,2.7c-0.1,1.4-0.1,3.5-0.2,4.4c-0.1,0.9-0.3,0.4-0.7-0.8
		c-0.4-1.3-1-3.3-1.8-4.6c-0.8-1.3-1.6-1.7-2.4-2c-0.8-0.2-1.5-0.2-2.5-0.3c-1-0.1-2.3-0.2-2.6-0.4
		C574.8,562.3,575.5,562.1,576.7,561.5z"/>
	<path class="st0" d="M591.9,329.6c1.2-0.6,3.1-1.7,4.1-2.5c1.1-0.9,1.4-1.6,1.6-2.9c0.2-1.3,0.2-3.2,0.3-4c0.1-0.8,0.4-0.4,0.8,0.7
		c0.4,1.1,1,3,1.6,4.2c0.6,1.2,1.1,1.7,1.8,2c0.7,0.3,1.5,0.3,2.9,0.4c1.4,0.1,3.3,0.3,4,0.4c0.7,0.2,0.3,0.3-1,0.6
		c-1.2,0.3-3.2,0.6-4.5,1.1c-1.3,0.5-1.8,1.3-2.2,2c-0.4,0.7-0.6,1.3-0.7,2.7c-0.1,1.4-0.1,3.5-0.2,4.4c-0.1,0.9-0.3,0.4-0.7-0.8
		c-0.4-1.3-1-3.3-1.8-4.6c-0.8-1.3-1.6-1.7-2.4-2c-0.8-0.2-1.5-0.2-2.5-0.3c-1-0.1-2.3-0.2-2.6-0.4
		C590.1,330.5,590.7,330.3,591.9,329.6z"/>
	<path class="st0" d="M88.9,496.1c1.2-0.6,3.1-1.7,4.1-2.5c1.1-0.9,1.4-1.6,1.6-2.9c0.2-1.3,0.2-3.2,0.3-4c0.1-0.8,0.4-0.4,0.8,0.7
		c0.4,1.1,1,3,1.6,4.2c0.6,1.2,1.1,1.7,1.8,2c0.7,0.3,1.5,0.3,2.9,0.4c1.4,0.1,3.3,0.3,4,0.4c0.7,0.2,0.3,0.3-1,0.6
		c-1.2,0.3-3.2,0.6-4.5,1.1c-1.3,0.5-1.8,1.3-2.2,2c-0.4,0.7-0.6,1.3-0.7,2.7c-0.1,1.4-0.1,3.5-0.2,4.4c-0.1,0.9-0.3,0.4-0.7-0.8
		c-0.4-1.3-1-3.3-1.8-4.6c-0.8-1.3-1.6-1.7-2.4-2c-0.8-0.2-1.5-0.2-2.5-0.3c-1-0.1-2.3-0.2-2.6-0.4C87,497,87.6,496.8,88.9,496.1z"
		/>
</g>
</svg>
